<svg xmlns="http://www.w3.org/2000/svg" viewBox="0 0 634 722" fill="none">
<path d="M316.713 721.222C316.713 721.222 186.74 672.741 114.067 622.67C4.50219 547.241 0.199585 442.482 0.199585 233.371V109.258L316.713 0.222168L633.203 109.258V233.371C633.203 442.482 628.901 547.241 519.336 622.67C446.663 672.741 316.713 721.222 316.713 721.222Z" fill="#EEEEEE"></path>
<path d="M125.256 430.547C105.84 440.117 80.0468 451.428 51.4714 461.455C56.5154 483.182 63.4393 502.581 72.917 520.169C94.284 506.593 113.183 492.883 127.78 481.397C125.75 463.622 124.945 446.671 125.252 430.547H125.256Z" fill="#1a252f"></path>
<path d="M173.176 271.469L173.165 271.48C137.025 257.063 82.9752 231.226 37.9195 197.222V247.069C37.9195 256.385 37.9382 265.413 37.9682 274.268C80.118 290.175 123.286 300.131 153.828 305.39C159.651 293.241 166.17 281.96 173.176 271.465V271.469Z" fill="#1a252f"></path>
<path d="M224.048 214.106C199.074 188.464 164.174 147.824 137.464 103.038L68.5433 126.853C106.66 175.241 160.886 217.228 196.614 241.103C205.478 231.11 214.708 222.138 224.048 214.11V214.106Z" fill="#1a252f"></path>
<path d="M255.626 190.504L255.619 190.511C268.369 182.307 280.689 175.873 291.822 171.067C281.494 143.071 269.122 102.746 261.7 60.1075L200.333 81.3181C216.813 124.151 238.79 163.821 255.622 190.508L255.626 190.504Z" fill="#1a252f"></path>
<path d="M139.063 343.017L139.044 343.058C112.644 344.091 76.5231 343.664 38.8444 339.308C39.4773 361.338 40.5258 381.691 42.2371 400.608C75.5458 396.79 106.364 390.498 129.304 384.671V384.682C131.652 369.988 134.97 356.117 139.063 343.013V343.017Z" fill="#1a252f"></path>
<path d="M137.98 537.962C130.304 547.173 121.04 557.698 110.592 568.766C118.849 576.498 127.982 583.875 138.213 590.942C144.455 595.261 151.195 599.562 158.243 603.806C149.705 580.829 143.058 558.922 137.98 537.962Z" fill="#1a252f"></path>
<path d="M418.08 254.907L442.926 271.473L454.535 285.269C454.535 285.269 438.504 289.958 432.333 284.917C426.146 279.868 418.084 254.907 418.084 254.907H418.08ZM513.442 423.023L498.512 410.994L507.11 431.778L531.3 429.933L513.446 423.02L513.442 423.023ZM334.065 47.1086C323.79 79.9782 320.555 120.393 332.141 160.108L331.875 160.183C331.961 160.183 332.058 160.172 332.148 160.172C336.29 155.875 368.044 122.729 396.526 91.4612C396.526 91.4612 434.085 134.537 381.57 178.875C381.57 178.875 475.194 244.285 481.249 247.077C481.249 247.077 476.392 267.419 481.062 284.786L554.693 427.466L517.516 471.257L463.024 440.562L489.296 482.68C489.296 482.68 459.605 486.363 450.554 481.868C445.435 455.171 421.799 411.952 421.799 411.952L366.348 389.51C366.348 389.51 342.169 359.822 343.858 316.54C343.858 316.54 316.23 429.963 390.816 458.258L495.194 590.949C591.698 524.327 595.487 431.785 595.487 247.077V137.438L334.065 47.1086Z" fill="#1a252f"></path>
</svg>
