<svg class="{{ .class }}" width="{{ .size }}" height="{{ .size }}" viewBox="0 0 512 512" version="1.1" xmlns="http://www.w3.org/2000/svg" xmlns:xlink="http://www.w3.org/1999/xlink" aria-label="{{ .label }}" role="img">
  <title>{{ .label }}</title>
  {{ if eq .icon "code" }}
    <g stroke="none" stroke-width="1" fill="none" fill-rule="evenodd">
      <g id="icon" fill="currentColor" transform="translate(37.333333, 128.141872)">
        <path d="M111.084954,16.7215774 L141.254831,46.8914721 L60.356556,127.806522 L141.254831,208.721577 L111.084954,238.891472 L7.10542736e-15,127.806522 L111.084954,16.7215774 Z M326.063211,16.758697 L295.893333,46.9285921 L376.791607,127.843642 L295.893333,208.758697 L326.063211,238.928592 L437.148163,127.843642 L326.063211,16.758697 Z M231.145356,3.69482223e-12 L272.358192,11.0429459 L206.100516,258.319957 L164.887681,247.277012 L231.145356,3.69482223e-12 Z"></path>
      </g>
    </g>
  {{ else if eq .icon "menu" }}
    <g stroke="none" stroke-width="1" fill="none" fill-rule="evenodd">
      <g id="app-main-menu" fill="currentColor" transform="translate(42.666667, 106.666667)">
        <path d="M3.55271368e-14,4.26325641e-14 L426.666667,4.26325641e-14 L426.666667,42.6666667 L3.55271368e-14,42.6666667 L3.55271368e-14,4.26325641e-14 Z M3.55271368e-14,128 L426.666667,128 L426.666667,170.666667 L3.55271368e-14,170.666667 L3.55271368e-14,128 Z M3.55271368e-14,256 L426.666667,256 L426.666667,298.666667 L3.55271368e-14,298.666667 L3.55271368e-14,256 Z"></path>
      </g>
    </g>
  {{ else if eq .icon "close" }} 
    <g stroke="none" stroke-width="1" fill="none" fill-rule="evenodd">
      <g id="add" fill="currentColor" transform="translate(134.248389, 134.248389)">
        <path d="M213.333333,2.84217094e-14 L243.503223,30.1698893 L151.921,121.751 L243.503223,213.333333 L213.333333,243.503223 L121.751,151.921 L30.1698893,243.503223 L2.84217094e-14,213.333333 L91.582,121.751 L2.84217094e-14,30.1698893 L30.1698893,2.84217094e-14 L121.751,91.582 L213.333333,2.84217094e-14 Z"></path>
      </g>
    </g>
  {{ else if eq .icon "chev-right" }}
    <g stroke="none" stroke-width="1" fill="none" fill-rule="evenodd">
      <g id="add" fill="currentColor" transform="translate(187.520000, 134.186667)">
        <polygon id="arrowhead-right" points="30.2933333 243.626667 0 213.333333 91.7333333 121.813333 0 30.2933333 30.2933333 0 151.893333 121.813333"></polygon>
      </g>
    </g>
  {{ else if eq .icon "chev-left" }}
    <g stroke="none" stroke-width="1" fill="none" fill-rule="evenodd">
      <g id="add" fill="currentColor" transform="translate(172.586667, 134.186667)">
        <polygon id="arrrowhead-left" points="121.6 243.626667 0 121.813333 121.6 0 151.893333 30.2933333 60.16 121.813333 151.893333 213.333333"></polygon>
      </g>
    </g>
  {{ else if eq .icon "github" }}
    <path fill="currentColor" d="M8 0C3.58 0 0 3.58 0 8c0 3.54 2.29 6.53 5.47 7.59.4.07.55-.17.55-.38 0-.19-.01-.82-.01-1.49-2.01.37-2.53-.49-2.69-.94-.09-.23-.48-.94-.82-1.13-.28-.15-.68-.52-.01-.53.63-.01 1.08.58 1.23.82.72 1.21 1.87.87 2.33.66.07-.52.28-.87.51-1.07-1.78-.2-3.64-.89-3.64-3.95 0-.87.31-1.59.82-2.15-.08-.2-.36-1.02.08-2.12 0 0 .67-.21 2.2.82.64-.18 1.32-.27 2-.27.68 0 1.36.09 2 .27 1.53-1.04 2.2-.82 2.2-.82.44 1.1.16 1.92.08 2.12.51.56.82 1.27.82 2.15 0 3.07-1.87 3.75-3.65 3.95.29.25.54.73.54 1.48 0 1.07-.01 1.93-.01 2.2 0 .21.15.46.55.38A8.013 8.013 0 0016 8c0-4.42-3.58-8-8-8z"></path>
  {{ else if eq .icon "linkedin" }}
    <path fill="currentColor" d="M3.94 2A2 2 0 1 1 2 0a2 2 0 0 1 1.94 2zM4 5.48H0V18h4zm6.32 0H6.34V18h3.94v-6.57c0-3.66 4.77-4 4.77 0V18H19v-7.93c0-6.17-7.06-5.94-8.72-2.91z"></path>
  {{ end }}
</svg>
