<?xml version="1.0" encoding="utf-8"?>
<!-- Generator: Adobe Illustrator 23.0.3, SVG Export Plug-In . SVG Version: 6.00 Build 0)  -->
<svg version="1.1"
	 id="Layer_1" inkscape:version="0.91 r13725" sodipodi:docname="Lucasfilm.svg" xmlns:cc="http://creativecommons.org/ns#" xmlns:dc="http://purl.org/dc/elements/1.1/" xmlns:inkscape="http://www.inkscape.org/namespaces/inkscape" xmlns:rdf="http://www.w3.org/1999/02/22-rdf-syntax-ns#" xmlns:sodipodi="http://sodipodi.sourceforge.net/DTD/sodipodi-0.dtd" xmlns:svg="http://www.w3.org/2000/svg"
	 xmlns="http://www.w3.org/2000/svg" xmlns:xlink="http://www.w3.org/1999/xlink" x="0px" y="0px" viewBox="0 0 1000 333.9"
	 style="enable-background:new 0 0 1000 333.9;" xml:space="preserve">
<g>
	<g>
		<path fill="currentColor" d="M102.2,215l-3.3,26.5c0,0.1-1.9,13.5-2.5,16.6c-0.6,2.8-1.8,5.7-2.2,6.7c-0.1,0.1-0.1,0.3-0.1,0.3c-1.2,2.9-3.3,5.6-6.4,8
			c-6.4,5.2-13.3,5.5-13.4,5.5c0,0-14.5-0.2-18.1-0.2c0-2.3-0.2-93.2-0.2-93.2S55.3,31.4,55.3,31.1c0-0.3,0.6-4,3.7-7
			c2.5-2.4,7.1-3.2,7.1-3.2c1.2-0.2,2-1.2,2-2.4v-6.5c0-1.3-1.1-2.4-2.4-2.4l-57.5,0v0c-0.7,0-1.3,0.3-1.7,0.7
			c-0.5,0.5-0.7,1.1-0.7,1.7c0,0,0,6.3,0,6.3c0,1.1,0.7,2,1.7,2.3l0.8,0.2c1.9,0.5,4.9,1.3,7.2,3.9c2.8,3.2,3,7.2,3,7.2l0.6,171.7
			l0.1,25.6l-0.2,41.6c0,0.1,0,0.3,0,0.5c0,1.9-0.3,5.7-1.8,7.9c-3.5,5-8.1,5.6-8.3,5.7c-1.2,0.1-2.2,1.2-2.2,2.4l0,7.9
			c0,0.6,0.2,1.3,0.7,1.7c0.5,0.5,1.1,0.7,1.8,0.7l101.2-0.3c1.3,0,2.3-1,2.4-2.2l6.9-79.5c0.1-0.7-0.2-1.4-0.6-1.9
			c-0.4-0.5-1.1-0.8-1.8-0.8l-12.8,0C103.4,212.9,102.3,213.8,102.2,215z M117.3,215.4l-6.9,79.5L9.2,295.1l0-7.8
			c0,0,5.9-0.5,10.1-6.7c2.5-3.6,2.2-9.7,2.2-9.7s0.2-38.1,0.2-41.6c0-3.5-0.1-25.6-0.1-25.6L21.1,31.9c0,0-0.1-4.8-3.6-8.8v0
			c-3.2-3.6-7.4-4.3-9.1-4.9l0-6.3h57.5v6.5c0,0-5.3,0.9-8.4,3.8c-4,3.8-4.5,8.6-4.5,8.6s0.6,152.5,0.6,154.3
			c0,1.8,0.1,94.3,0.1,94.3s0.1,0.8,0.4,1c0.5,0.3,1.2,0.2,1.2,0.2l18.9,0.2c0,0,7.7-0.2,14.8-6c5.3-4.3,6.8-8.3,7.2-9.1
			c0.4-0.9,1.8-4.1,2.4-7.3c0.6-3.2,2.5-16.7,2.5-16.7l3.4-26.5L117.3,215.4z"/>
		<path fill="currentColor" d="M223.9,3.7L223.9,3.7l-50.7-0.2c-0.6,0-1.3,0.3-1.7,0.7c-0.5,0.5-0.7,1.1-0.7,1.7v18.1c0,1.3,1,2.4,2.3,2.4l5.7,0.3
			c0.4,0,1.6,0.3,2.2,1c1.8,2.1,2.1,5.1,2.2,5.3c0,0.3,0.5,164.3,0.5,164.3l0,3.5c-0.1,6.7-1.7,11.1-5.9,15.5
			c-4,4.2-8.4,6.1-13.5,5.9c-2.6-0.1-8.2-1.3-12.3-5.4c-2.4-2.4-4.8-8-4.9-11.4c0-4-0.8-168.7-0.8-170.3c0-1.9,0.4-5.3,1.5-6.8
			c0.8-1.1,3-1.7,3.9-1.8l5.2-0.6c1.2-0.1,2.2-1.2,2.2-2.4l0.1-17.8c0-0.6-0.3-1.3-0.7-1.7c-0.4-0.5-1.1-0.7-1.7-0.7H90.1
			c-0.6,0-1.3,0.3-1.7,0.7c-0.5,0.5-0.7,1.1-0.7,1.7l0,17.7c0,1.3,1,2.4,2.4,2.4c0,0,2.8,0.1,4.8,0.5c0.7,0.1,2.1,0.4,4.2,2.4
			c1,0.9,1.5,3.1,1.5,4.7l0.7,173.5h-1.9c-1.2,0-2.3,0.9-2.4,2.1l-4,31.6c-0.5,3.7-2,13.8-2.5,16.2c-0.4,2.2-1.5,4.6-1.8,5.4
			l-0.2,0.4c-0.8,2-2.4,3.9-4.7,5.7c-4.7,3.8-9.9,4.2-9.9,4.2c0,0-7.9-0.1-12-0.1c0-4.6-0.1-87.4-0.1-87.4S61.2,37.4,61.2,31.6
			c0.1-0.5,0.5-2,1.9-3.3c0.8-0.7,3-1.5,4.2-1.7l4.8-0.9c1.2-0.2,2-1.2,2-2.4l0-4.9V6c0-1.3-1.1-2.4-2.4-2.4h-5.9H2.4
			c-0.6,0-1.3,0.3-1.7,0.7C0.2,4.8,0,5.4,0,6l0.1,16.7c0,1.1,0.7,2.1,1.8,2.4L7,26.5c1.6,0.4,3.2,0.8,4.3,2.1
			c1.3,1.5,1.5,3.6,1.5,3.6c0,0,0,0,0,0c0,1.1,0.6,171.4,0.6,171.4l0.1,25.5l-0.2,41.7c0,0,0,0.5,0,0.5c0,2-0.5,4-0.8,4.4
			c-1.9,2.7-4.2,3.1-4.3,3.2c0,0-5,0.7-5,0.7c-1.2,0.2-2.1,1.2-2.1,2.3L1,287.1c0,0.1-0.1,13.8-0.1,13.8c0,0.7,0.3,1.3,0.7,1.7
			c0.5,0.5,1.1,0.7,1.7,0.7l112.4-0.3c1.3,0,2.3-1,2.4-2.2l4.4-50.4c0.1,0.1,0.3,0.2,0.4,0.3l0.4,0.3c2.9,2,6.1,4.3,12.4,6.4
			c4.7,1.6,10.5,2.5,16.7,2.6c3.2,0.1,8.8-0.4,17.5-2.9c4.9-1.4,9.6-3.9,13.7-6.1c11.2-6.2,17-15.1,21.6-22.2c0,0,0.4-0.6,0.4-0.6
			c3.1-4.8,5.5-12.8,6.7-18.8c1.4-6.8,1.6-12.7,1.6-13c0,0,0-0.3,0-0.3c0-0.2-0.4-160.2-0.4-163.7c0.1-1.3,0.8-3.2,1.2-3.5
			c2.3-1.8,5.4-2.6,5.5-2.6c0,0,4.3-1.2,4.3-1.2c1.1-0.3,1.8-1.2,1.8-2.4l0-16.7C226.3,4.8,225.2,3.7,223.9,3.7z M223.9,22.9
			L223.9,22.9l-4.4,1.2c0,0-3.5,0.9-6.3,3c-1.4,1.1-2.1,4-2.2,5.3c0,0.6,0.4,163.8,0.4,163.8l0,0.2c0,0.2-0.2,6-1.5,12.5
			c-1.1,5.5-3.4,13.4-6.3,17.9l-0.4,0.6c-4.5,6.9-10.1,15.5-20.7,21.4c-3.9,2.2-8.5,4.6-13.1,5.9c-8.4,2.4-13.7,2.9-16.8,2.8
			c-5.9-0.1-11.4-1-15.9-2.5c-6-2-8.9-4.1-11.8-6.1l-0.4-0.3c-0.4-0.3-1-0.7-1.5-1.1l0.4-4.1c1.2,1,2.3,1.8,3.2,2.4l0.4,0.3
			c2.8,1.9,5.4,3.8,10.9,5.6c4.2,1.4,9.3,2.2,14.9,2.3c2.8,0,7.8-0.4,15.7-2.7c4.3-1.2,8.7-3.5,12.4-5.6
			c9.9-5.5,15.2-13.7,19.5-20.3l0.4-0.6c2.5-3.8,4.7-11.2,5.9-16.7c1.3-6.3,1.5-11.8,1.5-12l-0.4-164.2c0,0.1,0.4-5.3,3.6-7.7
			c3.3-2.5,7.4-3.6,7.5-3.6c1.1-0.3,1.8-1.3,1.8-2.4v-6.4c0-1.3-1.1-2.4-2.4-2.4l-39-0.2c-0.6,0-1.3,0.3-1.7,0.7
			c-0.5,0.5-0.7,1.1-0.7,1.7v6.7c0,1.3,1.1,2.4,2.4,2.4c0,0,3.9,0.1,6.4,3.1c3.2,3.7,3.6,8.7,3.6,8.8c0,1.5,0.6,160.1,0.5,168.2
			c-0.1,8.2-2.3,14-7.5,19.5c-4.6,4.9-10.4,7.2-17.8,7.1c-5.3,0-11.8-2.8-16.5-7c-4.5-4.1-6.5-12.4-6.5-15l-0.8-170.3
			c0-0.1-0.2-6.5,2.7-10.3c2.7-3.6,8-4.1,8-4.1c1.2-0.1,2.2-1.2,2.2-2.4v-6.6c0-1.3-1.1-2.4-2.4-2.4H96c-1.3,0-2.4,1.1-2.4,2.4V18
			c0,1.3,1,2.3,2.2,2.4c0,0,4.1,0.4,7.5,3.6c3.8,3.5,3.2,10.6,3.2,10.7c0,0.1,0,0.2,0,0.2l0.8,170.1c0,0.1-0.1,0.8-0.1,1.9v2.4h2.5
			l14,0l-2.5,28.9l-0.3,3.1l-0.4,4.2l-0.2,3l-4.5,52L3.4,301l0.1-13.8l0.2-5.1l5-0.7c0.1,0,3.4-0.5,5.9-4.2c0.8-1.2,1.2-4,1.2-5.8
			c0-0.1,0-0.2,0-0.4v-0.1l0.2-41.7l-0.1-25.6c0,0-0.6-170.9-0.6-171.6c0,0-0.2-2.9-2.1-5.1c-1.6-1.8-3.8-2.4-5.5-2.9l-5.1-1.4
			L2.4,6h63.3h5.9v12.4l0,4.9l-4.8,0.9c-1.2,0.2-4.1,1.1-5.4,2.3c-2,1.9-2.5,4.3-2.6,4.8c0,1,0.6,153.8,0.6,153.8s0.1,81.5,0.1,89.8
			c5,0.1,14.3,0.1,14.6,0.2c0.4,0,6-0.4,11.3-4.7c2.6-2.1,4.4-4.3,5.4-6.7c0,0,0.1-0.2,0.1-0.4c0.4-0.9,1.5-3.5,2-5.9
			c0.5-2.5,2-12.7,2.5-16.4l4-31.6h2l2.4,0l0-2.5c0-6.6-0.7-173.1-0.7-173.5c0-2.1-0.6-5-2.3-6.5c-2.5-2.3-4.4-2.8-5.5-3
			c-2.2-0.4-5.2-0.5-5.2-0.5l0-17.7h66.5l-0.1,17.8l-5.2,0.6c-1.1,0.1-4.2,0.8-5.6,2.8c-1.7,2.3-2,6.7-2,8.3
			c0,0,0.8,166.3,0.8,170.3c0,4.1,2.7,10.4,5.6,13.1c4.6,4.5,10.6,6,14,6.1c6.4,0.2,11.3-2.5,15.3-6.7c4.6-4.9,6.5-9.8,6.6-17.2
			c0-0.5,0-1.7,0-3.5c0-24.4-0.5-158.7-0.5-164.5c0-0.3-0.4-4-2.7-6.7c-1.5-1.7-3.9-1.9-4-1.9l-5.7-0.3V5.9l50.7,0.2L223.9,22.9z
			 M125.5,207.9L125.5,207.9c-0.5-0.5-1.1-0.8-1.8-0.8l-14.1,0c0-1.2,0-1.9,0-1.9L108.9,35c0,0,0.8-8.3-4-12.7c-4.1-3.8-9-4.2-9-4.2
			v-6.3h54.8v6.6c0,0-6.3,0.6-9.7,5.1c-3.4,4.5-3.2,11.8-3.2,11.8s0.8,165.9,0.8,170.3c0,2.9,2,12.1,7.3,16.8
			c5.6,5,12.7,7.5,18.1,7.6c6.4,0,13.5-1.5,19.6-7.9c6.1-6.4,8.1-13,8.2-21.1c0.1-8.2-0.5-168.3-0.5-168.3s-0.3-5.8-4.1-10.2
			c-3.3-3.8-8.2-3.9-8.2-3.9v-6.7l39,0.2v6.4c0,0-4.5,1.2-8.3,4.1c-4.2,3.1-4.5,9.7-4.5,9.7l0.4,164.1c0,0-0.2,5.4-1.4,11.6
			c-1.2,5.9-3.4,12.6-5.5,15.9c-4.4,6.7-9.4,14.6-19,20.1c-3.4,1.9-7.7,4.2-11.9,5.4c-7.8,2.2-12.6,2.6-15,2.6
			c-5.1-0.1-10.1-0.8-14.2-2.1c-5.4-1.8-7.8-3.6-10.7-5.6c-1-0.7-2.5-1.9-4.3-3.4l2.7-30.8C126.2,209,126,208.4,125.5,207.9z"/>
	</g>
	<g>
		<path fill="currentColor" d="M298.1,180.2c-1.6,1.7-4.3,3.8-6.9,4.8c-3.6,1.4-7.7,1.4-7.7,1.4c-0.2,0-2.7,0.1-5.4-0.7c-2.1-0.7-4.6-2.4-6-3.7
			c-1.5-1.4-3.5-4.1-4.5-6.5c-1.2-2.8-1.3-5.6-1.3-5.6l-0.3-126.9c0-6.3,2.2-11.5,6.3-14.9c2.6-2.2,12.2-6.9,21-0.4
			c8.6,6.3,9.2,19.7,9.2,19.8v20.7c0,1.4,1.1,2.4,2.4,2.4h14.6c0.7,0,1.3-0.3,1.7-0.7c0.5-0.5,0.7-1.1,0.7-1.7l-0.1-56
			c0-1.3-1.1-2.4-2.5-2.4h-14.9c-1.3,0-2.4,1.1-2.4,2.4c0,0,0,1.6,0,2.8c-1.5-0.8-4.8-2.6-8.9-4.2c-5.7-2.2-12-3.8-17.4-4.3
			c-11.5-1.1-22.4,4.1-22.8,4.4l0,0c-6,2.6-13.3,9.1-16.2,14.5c-3.1,5.9-3.4,11.3-3.4,11.5c0,0,0.8,138,0.8,138
			c0,0.2-0.1,7.3,2.6,14.1c2.2,5.5,7,10.1,9.7,12.3c3.5,2.9,9.8,5.6,16.2,6.9c5.9,1.1,10.6,1,12.3,1l0.5,0l0.2,0
			c7.5,0.1,12.8-1.2,16-2.2c6.1-2,12.2-5.8,18.2-11.4c3.6-3.3,8.2-9.5,10.4-15.7c2.4-7,2.1-14.2,2.1-14.5v-39.7
			c0-1.3-1.1-2.4-2.4-2.4h-14.7c-0.6,0-1.3,0.3-1.7,0.7c-0.4,0.5-0.7,1.1-0.7,1.7l0.1,40.8c0,0,0,3.8-1,7.3
			C300.9,176.4,299,179.1,298.1,180.2z M304.1,174.1c1.1-3.9,1.1-8,1.1-8l-0.1-40.8h14.7v39.8c0,0,0.3,6.9-2,13.6
			c-2.1,6.1-6.6,11.9-9.7,14.7c-3.4,3.1-9.7,8.3-17.4,10.9c-7,2.3-14.4,2.1-15.5,2.1c-1.1,0-6,0.3-12.4-0.9
			c-5.8-1.1-11.8-3.6-15.1-6.3c-2.9-2.5-7.1-6.7-9-11.4c-2.6-6.4-2.4-13.2-2.4-13.2l-0.8-137.9l0,0c0,0,0.2-5,3.1-10.4
			c2.7-5,9.7-11.1,15.1-13.4c0,0,10.6-5.2,21.5-4.1c5.5,0.5,11.7,2.2,16.8,4.1c5.1,2,8.9,4.3,9.4,4.5c0.5,0.3,1.6,0.6,2.2,0.3
			c0.6-0.4,0.6-1.4,0.6-1.4v-4.2h15l0.1,56h-14.6V47.1c0,0-0.5-14.6-10.2-21.7c-9.7-7.1-20.4-2.5-24,0.5c-4.9,4-7.2,10-7.2,16.8
			c0,6.8,0.3,127.1,0.3,127.1s0.1,3.2,1.5,6.4c1.2,2.9,3.5,5.9,5,7.4c1.5,1.4,4.3,3.4,6.9,4.3c3.2,1.1,6.2,0.9,6.2,0.9
			s4.5-0.1,8.5-1.6c3.5-1.3,6.5-4,7.8-5.4C301.2,180.4,303.2,177.3,304.1,174.1z"/>
		<path fill="currentColor" d="M328.2,165v-45.6c0-1.4-1.1-2.4-2.4-2.4h-26.5c-0.6,0-1.3,0.3-1.7,0.7c-0.5,0.5-0.7,1.1-0.7,1.7l0.1,46.6c0,0,0,3-0.8,5.6
			c-0.6,2-1.9,3.9-2.3,4.3c-1.2,1.3-3.2,2.8-4.8,3.4c-2.6,1-5.7,1-5.7,1c-0.1,0-0.3,0-0.3,0c-0.1,0-1.6,0-3.2-0.5
			c-1.2-0.4-2.9-1.5-3.7-2.3c-0.9-0.8-2.4-2.9-3.1-4.5c-0.8-1.8-0.9-3.7-0.9-3.7c0,0,0,0,0,0c0-1.7-0.3-126.7-0.3-126.7
			c0-4.6,1.4-8.1,4.2-10.4c1.3-1.1,7.9-4.5,13.8-0.2c6.2,4.5,6.8,15.2,6.8,15.3v26.4c0,1.3,1.1,2.4,2.4,2.4h26.3
			c0.7,0,1.3-0.3,1.7-0.7c0.5-0.5,0.7-1.1,0.7-1.7l-0.2-67.7c0-1.3-1.1-2.4-2.4-2.4h-26.7c-1.1,0-2.1,0.8-2.3,1.9
			c-0.4-0.2-1-0.4-1-0.4c-6.2-2.4-13.1-4.1-19-4.7c-12.8-1.2-24.7,4.4-25.8,4.9l0,0c0,0-0.1,0-0.1,0c0,0,0,0-0.1,0c0,0,0,0,0,0
			c-7.3,3.3-15.3,10.5-18.8,17c-3.7,7-4,13.3-4,14c0,0,0,0.2,0,0.2l0.8,138.1c0,0,0,0.1,0,0.3c0,1.5,0.2,8.9,3.1,16
			c2.7,6.6,8.3,12,11.4,14.6c5.1,4.3,13.1,7,18.9,8.1c6.5,1.3,11.6,1.2,13.6,1.1c0,0,0.3,0,0.4,0l0.1,0c8.3,0.1,14.3-1.3,17.9-2.5
			c6.9-2.3,13.7-6.5,20.4-12.6c3.9-3.5,9.3-10.4,11.9-18.2c2.2-6.5,2.5-13,2.5-15.5L328.2,165z M325.7,165.1c0,0.2,0,0.4,0,0.8
			c0,2.4-0.2,8.6-2.3,14.7c-2.5,7.3-7.6,13.8-11.3,17.2c-6.4,5.9-12.9,9.9-19.5,12.1c-3.4,1.1-9.2,2.5-17.1,2.4h-0.2l-0.4,0
			c-1.9,0-6.8,0.1-13.1-1.1c-5.5-1.1-13-3.6-17.7-7.6c-2.9-2.4-8.2-7.5-10.7-13.6c-3-7.4-2.9-15.2-2.9-15.3l-0.8-138.1v-0.1
			c0-0.6,0.3-6.5,3.8-13c3.2-6.1,11.1-13.1,18-16.1l-0.3,0.1c0.5-0.2,12.2-5.9,24.7-4.7v0c5.7,0.5,12.4,2.2,18.3,4.5
			c1.6,0.6,3,1.2,4.3,1.8c0-1.5,0-3.1,0-3.1h26.7l0.1,67.7h-26.3c0,0,0-26.1,0-26.5c0-0.4-0.7-11.9-7.8-17.1
			c-7.2-5.3-15.1-1.1-16.8,0.3c-3.4,2.8-5.1,6.9-5.1,12.3c0,0,0.3,126.5,0.3,126.9c0,0.2,0.2,2.3,1,4.4c0.8,2.1,2.7,4.4,3.7,5.4
			c1.1,1,3.1,2.4,4.7,2.9c2,0.7,4,0.6,4,0.6l0.3,0c0,0,3.5-0.1,6.6-1.2c2.1-0.8,4.4-2.6,5.7-4c0.7-0.7,2.2-3,2.9-5.4
			c0.9-3,0.9-6.3,0.9-6.3l-0.1-46.6h26.5C325.7,119.4,325.7,164.9,325.7,165.1z"/>
	</g>
	<g>
		<path fill="currentColor" d="M383,41.3c-0.2-1.2-1.2-2-2.4-2v0l-4.6,0c-1.2,0-2.2,0.9-2.4,2.1L363,110c-0.1,0.7,0.1,1.4,0.6,2c0.5,0.5,1.2,0.8,1.9,0.8
			H392c0.7,0,1.4-0.3,1.9-0.9c0.5-0.5,0.7-1.3,0.6-2L383,41.3z M365.5,110.3L376,41.7v0l4.6,0l11.4,68.7H365.5z"/>
		<path fill="currentColor" d="M439.4,163l-2.3-0.9c-1.3-0.7-2.4-1.6-2.8-2c-0.3-0.4-1.3-1.5-1.9-2.7c-0.7-1.6-1.1-3.4-1.1-3.4
			c0,0-18.7-114.6-18.7-114.6c0-0.1-0.9-5.2-0.9-5.2l-0.3-3.5c0-1,0-2.2,0.9-4.2c0.5-1.2,1.9-2.4,2.5-2.9c0.6-0.5,2.3-1.6,4.2-2.1
			c1.9-0.5,4-0.4,4-0.4c0.7,0,1.3-0.2,1.8-0.6c0.5-0.5,0.8-1.1,0.8-1.8v-7.1c0-1.4-1.1-2.4-2.4-2.4h-72.4l0,0
			c-1.3,0-2.4,1.1-2.5,2.4l0,6.7c0,1.2,0.8,2.2,2,2.4c0,0,2.5,0.5,4.7,1.7c1.4,0.8,2.6,2.1,3.2,3c0.8,1.1,1.6,3.1,1.8,4.9
			c0.3,2.5-0.2,4.9-0.2,5C359.9,35.5,340,165,340,165c-0.5,2.7-1.5,7.3-2.2,8.5c-0.7,1.1-1.7,3-3,4.5c-1.7,1.9-3.6,3.5-3.6,3.5
			c-0.6,0.5-0.9,1.2-0.9,1.9v6c0,0.7,0.3,1.4,0.9,1.9c0.6,0.5,1.3,0.7,2,0.5l32.3-6.4c1.1-0.2,2-1.2,2-2.4v-6.7
			c0-0.7-0.3-1.3-0.8-1.8c-0.5-0.5-1.1-0.7-1.8-0.7c0,0-1.5,0.1-3-0.3c-1.4-0.4-2.8-1.3-3.2-1.7c-0.4-0.4-1.2-1.5-1.4-2.6
			c-0.1-0.5-0.2-1-0.2-1.4c0-0.6,0.1-1.1,0.1-1.1c0-0.1,5.4-34.6,6.3-40.3c1.7,0,30.1,0,30.5,0c0.8,4.9,5.4,30.7,5.4,30.7
			c0,0,0.3,1.7,0.3,3.5c0,0.3,0,0.6,0,0.9c-0.1,1.4-0.6,2.8-0.9,3.3c-0.3,0.6-1.5,2.1-2.7,2.9c-1.5,1.1-3.1,1.6-3.2,1.7
			c-1,0.3-1.7,1.3-1.7,2.3v6.7c0,0.7,0.3,1.4,0.8,1.8c0.5,0.5,1.2,0.7,1.9,0.6l45.1-4.9c1.2-0.1,2.2-1.2,2.2-2.4v-8.1
			C441.2,164.4,440.3,163.4,439.4,163z M438.7,173.5l-45.1,4.9v-6.7c0,0,2-0.6,3.9-2c1.5-1.1,2.9-2.9,3.4-3.7
			c0.4-0.8,1.1-2.4,1.2-4.3c0.2-2.4-0.3-5-0.3-5l-5.5-31.4c0,0-0.1-0.6-0.7-1c-0.6-0.4-1.3-0.3-1.3-0.3h-31.6c0,0-0.6,0-1,0.3
			c-0.4,0.3-0.5,0.9-0.5,0.9l-6.4,41.1c0,0-0.3,1.8,0.1,3.5c0.4,1.6,1.5,3.2,2.1,3.8c0.7,0.6,2.5,1.8,4.3,2.3
			c1.9,0.5,3.7,0.4,3.7,0.4v6.7l-32.3,6.4v-6c0,0,2.1-1.7,4-3.8c1.5-1.7,2.7-3.9,3.3-4.9c1.2-2.2,2.5-9.4,2.5-9.4l19.9-129.6
			c0,0,0.6-2.8,0.2-5.7c-0.3-2.2-1.3-4.5-2.2-5.9c-0.9-1.3-2.4-2.9-4.1-3.8c-2.6-1.4-5.4-1.9-5.4-1.9l0.1-6.7h72.4v7.1
			c0,0-2.5-0.2-4.8,0.4c-2.2,0.6-4.3,1.9-5.2,2.6c-0.7,0.6-2.4,2-3.1,3.7c-1.1,2.4-1.1,4-1.1,5.2c0,0.6,0,1.7,0.3,3.8
			c0.2,1.7,0.9,5.2,0.9,5.2L429,154.5c0,0,0.4,2.1,1.3,3.9c0.7,1.5,1.7,2.7,2.3,3.3c0.6,0.7,2,1.8,3.5,2.5c1.3,0.7,2.7,1.1,2.7,1.1
			V173.5z"/>
		<path fill="currentColor" d="M444,159l-2.6-1.5c0,0-1.1-0.4-1.5-0.6c-0.1-0.1-1.2-0.8-1.2-0.8c0,0-0.8-1.1-0.8-1.1c0,0-0.7-2.2-0.7-2.2
			c0,0-18.6-114.3-18.6-114.3c0,0-0.7-4.4-0.8-5c0-0.2-0.2-2.5-0.2-2.8c0-0.6,0-0.9,0.3-1.6c0.1-0.1,1-1,1-1
			c0.2-0.1,1.1-0.7,1.8-0.8c0.8-0.2,1.8-0.2,2.2-0.2l6.2,0.4c0.7,0,1.3-0.2,1.8-0.7c0.5-0.5,0.8-1.1,0.8-1.8l0-6.2v-13
			c0-1.4-1.1-2.4-2.4-2.4h-5.9l0,0H345c-1.3,0-2.4,1.1-2.4,2.4l-0.1,17.4c0,1.2,0.8,2.2,2,2.4l4.8,0.9c0.3,0.1,1.8,0.4,2.9,1.1
			c0.4,0.2,1,0.8,1.2,1.1c0.4,0.6,0.8,1.7,0.9,2.4l0.1,1.1l-0.2,2.1c0,0-0.1,0.3-0.1,0.3c0,0.1-19.9,129.6-19.9,129.6
			c-0.6,3-1.4,6.1-1.6,6.7c-0.4,0.8-1.3,2.3-2.2,3.4c-1.2,1.4-2.8,2.7-2.8,2.7c0,0-2.2,1.7-2.2,1.7c-0.6,0.5-0.9,1.2-0.9,1.9v2.8
			v13.1c0,0.7,0.3,1.4,0.9,1.9c0.6,0.5,1.3,0.6,2,0.5l44.1-8.8c1.1-0.2,2-1.2,2-2.4v-17.6c0-0.7-0.3-1.3-0.7-1.8
			c-0.5-0.5-1.1-0.7-1.8-0.7l-6.1,0.2l-1.3-0.1c-0.1,0-0.3-0.1-0.4-0.2c0,0,0-0.1,0-0.1c0,0,3.7-23.2,3.7-23.2s1.4-9.1,1.9-12.1
			c3.2,0,17.5,0,20.6,0c0.6,3.5,4.5,25.9,4.5,25.9l0.2,2.5l0,0.5c0,0.2-0.1,0.6-0.2,0.8c-0.2,0.3-0.7,0.8-1,1
			c-0.6,0.4-1.4,0.8-1.6,0.8l-4,1.3c-1,0.3-1.6,1.2-1.7,2.3l-0.1,4.2v13.2c0,0.7,0.3,1.4,0.8,1.8c0.5,0.5,1.2,0.7,1.9,0.6l56.1-6.2
			c1.3-0.1,1.3-1.1,1.3-2.4l0.1-17.4C445.5,160.2,444.9,159.3,444,159z M444.6,178.7l-56.8,6.1v-13.2l0.1-4.2l4-1.3
			c0.3-0.1,1.4-0.5,2.2-1.2c0.7-0.5,1.5-1.4,1.7-1.8c0.1-0.3,0.5-1.1,0.5-1.8c0-0.2,0-0.5,0-0.7c0-1.2-0.2-2.5-0.2-2.9
			c0,0-3.9-22.3-4.9-27.9c-4.4,0-19.6,0-24.7,0c-1.6,10.2-5.9,37.4-5.9,37.4c0,0.1,0,0.3,0,0.6c0,0.2,0,0.4,0.1,0.6
			c0.1,0.2,0.3,0.7,0.5,0.9c0.3,0.3,1.1,0.7,1.7,0.9c0.8,0.2,1.7,0.2,2,0.2l6.1-0.2v17.6l-44,8.8v-13.1l0-2.8l2.2-1.8
			c0,0,1.7-1.4,3.2-3c1-1.2,2-2.9,2.6-3.9c0.4-0.9,1.3-4.4,1.9-7.4l19.9-129.6l0-0.3c0,0,0.2-1.1,0.2-2.5c0-0.4,0-0.9-0.1-1.4
			c-0.1-1.2-0.8-2.6-1.3-3.4c-0.4-0.6-1.2-1.4-2-1.9c-1.4-0.8-3.1-1.2-3.7-1.3l-4.8-0.9l0.1-17.4h78.2h5.9v0l0,0v12.9l0,6.2
			l-6.2-0.4c-0.5,0-1.9,0-3,0.3c-1.2,0.3-2.5,1.1-2.8,1.4c-1.2,1-1.5,1.5-1.6,1.7c-0.6,1.3-0.6,2-0.6,2.8l0.2,3c0,0,0.8,5,0.9,5.1
			c0,0,18.6,114,18.7,114.5c0.1,0.5,0.4,1.7,0.9,2.7c0.1,0.3,0.5,0.9,1.3,1.8c0.2,0.2,1,0.8,1.8,1.3l1.7,0.7l4.2,1.7V178.7z"/>
	</g>
	<g>
		<path fill="currentColor" d="M527,100.6c-1-1.9-2.8-4.7-5-6.9c-2.9-2.9-6.2-5.2-6.3-5.3c-0.1-0.1-24.8-15.5-24.8-15.5c-2.7-1.7-6-4.2-6.7-5.2
			c-0.5-0.8-1.9-2.7-2.5-4.4c-0.8-2.3-0.9-4.6-0.9-4.6V39.2c0,0,0-2.5,1.2-5.2c0.6-1.3,1.8-2.8,3.2-4.1c2.5-2.4,6.6-4,10.1-4
			c3.8,0,10.9,2.3,14.2,7.2c1.3,2,2.7,4,3.3,5.9c1.5,4.8,1.3,9.5,1.3,9.6l0,8.3c0,1.4,1.1,2.4,2.4,2.4h11.9c1.3,0,2.4-1.1,2.4-2.4
			V11.8c0-1.4-1.1-2.5-2.4-2.5H516c-1.3,0-2.4,1.1-2.4,2.5c0,0,0,3,0,5.4c-2.5-1.8-6.7-4.8-9.8-6.3c-4-1.9-7.6-3.1-10.9-3.8
			c-5.3-1.1-10.5-1.2-10.7-1.2c-1.9,0-8.6,0.4-14.5,2.8l0,0c-3.9,1.5-6.7,3.9-9.8,6.6c-7,6.2-7.7,15.5-7.8,15.9v33.9
			c0,0.2,0,3.8,0.9,7.8c0.6,2.9,2,6,3,7.9c1.2,2.2,3.4,5,5.5,7.1c2.3,2.3,4.7,3.9,4.7,3.9c0.1,0.1,25.3,16.1,25.3,16.1
			c0.1,0,2.6,1.6,4.5,3.2c1.2,1,2.1,2.1,2.4,2.5l0.1,0.1c0.4,0.7,1.3,1.9,1.7,3.2c0.7,2.4,0.7,5.3,0.7,5.3v15.2
			c0,0.1,0.1,4.2-0.9,7.8c-0.5,1.7-1.4,3.2-2.2,4c-2,2.3-4.1,4-6.1,4.8c-2.8,1.2-6,1.2-6.7,1.2l-0.5,0c-1,0-3,0.1-5-0.6
			c-2.4-0.8-5.2-2.6-7.2-4.7c-1.4-1.5-2.7-3.9-3.4-6.2c-0.8-2.7-0.9-5.1-0.9-5.1l-0.1-19c0-1.3-1.1-2.4-2.4-2.4h-11.1
			c-1.4,0-2.5,1.1-2.5,2.4l-0.1,52.4c0,0.6,0.3,1.3,0.7,1.7c0.5,0.5,1.1,0.7,1.7,0.7H464c0.7,0,1.3-0.3,1.7-0.7
			c0.5-0.5,0.7-1.1,0.7-1.7c0,0-0.1-4.6-0.1-6.6c2.1,1.3,8,4.8,11.8,6.3c4.8,1.8,11.3,2.9,17.5,2.9c5.6,0,10.6-0.5,16.4-3.2
			c4.1-1.9,8.2-5,12-9.3c6.3-7.1,6.9-16.7,6.9-17.2l0-28.7c0-0.2,0-3.7-0.9-7.6C529.4,105.8,528,102.5,527,100.6z M528.5,144.9
			c0,0-0.5,9.1-6.3,15.7c-3,3.3-6.7,6.7-11.2,8.7c-5.1,2.3-9.6,3-15.4,3c-5.8,0-12-1-16.6-2.8c-4.5-1.8-12.3-6.6-12.3-6.6
			s-1.2-1-2.1-0.7c-0.8,0.3-0.8,1.7-0.8,1.7l0.1,8.2h-11.5l0.1-52.4l0,0h11.1l0.1,19c0,0,0,2.7,1,5.8c0.8,2.5,2.3,5.3,4,7.1
			c2.3,2.4,5.3,4.5,8.2,5.4c2.8,0.9,5.4,0.7,6.2,0.7c0.8,0,4.3,0,7.6-1.4c2.7-1.1,5.1-3.3,7-5.5c1-1.2,2.1-3,2.7-5
			c1.1-4,1-8.5,1-8.5v-15.3c0,0-0.1-3.2-0.8-5.9c-0.5-1.8-1.6-3.4-2.1-4.1c-0.5-0.7-1.5-1.9-2.9-3c-2.1-1.7-4.8-3.3-4.8-3.3
			l-25.2-16c0,0-2.2-1.5-4.4-3.7c-2.1-2-4.1-4.6-5.1-6.5c-0.9-1.6-2.2-4.5-2.8-7.3c-0.8-3.7-0.8-7.3-0.8-7.3V31.4
			c0,0,0.6-8.7,6.9-14.2c2.7-2.4,5.5-4.7,9.1-6.2c5.5-2.2,11.8-2.7,13.6-2.6c0,0,5.2,0.1,10.3,1.1c4.3,0.9,8.5,2.8,10.4,3.7
			c4.3,2,11.4,7.5,11.4,7.5s1,0.5,1.5,0.3c0.5-0.2,0.4-1.2,0.4-1.2v-7.9h12.4V57h-11.9v-8.1c0,0,0.3-5.2-1.4-10.5
			c-0.7-2.3-2.2-4.5-3.6-6.5c-3.8-5.6-11.6-8.3-16.3-8.3c-4.1,0-8.8,1.8-11.7,4.6c-1.6,1.4-3,3.2-3.8,4.9c-1.5,3.2-1.5,6.2-1.5,6.2
			v19.7c0,0,0.1,2.6,1,5.3c0.7,2,2.2,4.2,2.8,5c1.4,1.9,7.4,5.9,7.4,5.9l24.8,15.4c0,0,3.2,2.2,6,4.9c2.1,2.1,3.8,4.7,4.6,6.3
			c0.9,1.6,2.2,4.7,2.8,7.6c0.8,3.7,0.8,7.1,0.8,7.1V144.9z"/>
		<path fill="currentColor" d="M535.8,107.6c-0.8-3.6-2.4-7.4-3.6-9.7c-0.6-1.1-2.7-4.9-6-8.3c-3.3-3.3-7.1-5.9-7.2-6c0,0-0.2-0.1-0.2-0.1
			c0,0-24.8-15.4-24.8-15.4c-2.3-1.5-4.6-3.3-5.1-3.8c-1.1-1.6-1.5-2.4-1.6-2.7c-0.5-1.4-0.6-2.8-0.6-2.9l0-19.4
			c0,0,0.1-1.3,0.7-2.7c0.2-0.5,0.9-1.4,1.9-2.3c1.4-1.3,4.1-2.4,6.1-2.4c2.6,0,7.4,1.8,9.4,4.6c1.1,1.6,2.2,3.3,2.6,4.4
			c1.2,3.7,1,7.5,1,7.5c0,0,0,0.3,0,0.3v14.2c0,1.4,1.1,2.4,2.4,2.4h23.6c1.3,0,2.4-1.1,2.4-2.4V5.9c0-1.4-1.1-2.4-2.4-2.4h-24.1
			c-1.4,0-2.4,1.1-2.4,2.4c0,0,0,0.3,0,0.4c-0.5-0.3-1-0.6-1.5-0.8c-4.4-2-8.5-3.5-12.2-4.3C488.3,0.1,482.5,0,482.3,0
			c-2.3,0-9.9,0.5-16.8,3.2h0c-4.8,1.9-8.2,4.7-11.5,7.7c-8.6,7.6-9.6,18.7-9.7,19.9l0,0.2v34.1c0,0.7,0,4.7,1,9
			c1,4.4,3,8.4,3.6,9.5c1.4,2.7,4,6,6.6,8.5c2.6,2.5,5.1,4.3,5.5,4.6c0,0,0.2,0.1,0.2,0.1c0,0,25.3,16,25.3,16c0,0,4,2.8,4,2.8
			l1.3,1.3l0.1,0.2c0.6,0.9,0.8,1.3,0.8,1.4c0.3,1.3,0.5,3.2,0.5,3.9v15.2c0,0.6,0,3.6-0.7,6.1c-0.2,0.7-0.6,1.4-1,1.8
			c-1.4,1.6-2.8,2.8-4,3.3c-1.3,0.5-3.1,0.8-4.3,0.8c-0.1,0-0.6,0-0.6,0c-0.7,0-2,0-3.1-0.3c-1.5-0.5-3.3-1.7-4.7-3.1
			c-0.8-0.8-1.7-2.5-2.1-3.9c-0.6-1.8-0.6-3.4-0.6-3.5l-0.2-24.7c0-1.4-1.1-2.4-2.5-2.4h-22.8c-1.4,0-2.5,1.1-2.5,2.4l-0.1,64.1
			c0,0.6,0.3,1.3,0.7,1.7c0.5,0.5,1.1,0.7,1.7,0.7h23.4c0.6,0,1.3-0.3,1.7-0.7c0.4-0.5,0.7-1.1,0.7-1.7c0,0,0-1.3,0-2.4
			c1.4,0.7,2.6,1.3,3.7,1.7c5.5,2.1,12.6,3.3,19.6,3.3c7.6,0,13-1.1,18.8-3.7c4.9-2.2,9.6-5.9,14-10.8c7.5-8.4,8.3-19.5,8.4-20.7
			c0-0.1,0-0.3,0-0.3v-28.7C536.8,116,536.8,112,535.8,107.6z M534.4,145.1l0,0.2c-0.1,1.1-0.8,11.4-7.8,19.2
			c-4.2,4.7-8.6,8.1-13.2,10.2c-5.5,2.5-10.6,3.5-17.8,3.5c-6.7,0-13.5-1.1-18.7-3.2c-2.1-0.8-4.7-2.2-7.1-3.5
			c0,0.1,0.1,6.5,0.1,6.5h-23.4l0.1-64.1h22.8c0,0,0.2,24.7,0.2,24.8c0,0,0.1,2,0.7,4.1c0.6,1.7,1.6,3.7,2.7,4.8
			c1.6,1.7,3.8,3.2,5.7,3.8c1.5,0.5,3.1,0.4,3.9,0.4h0.6c1.4,0,3.6-0.2,5.3-1c1.5-0.6,3.2-2,4.9-3.9c0.5-0.6,1.2-1.7,1.5-2.7
			c0.8-2.8,0.8-6.1,0.8-6.8c0-0.1,0-15.3,0-15.3c0-0.7-0.1-2.8-0.6-4.5c-0.2-0.7-0.8-1.7-1.2-2.2l-0.1-0.2c-0.1-0.2-0.8-1-1.8-1.8
			c-1.8-1.4-4.1-2.9-4.2-2.9l-25.2-16l-0.1-0.1c-0.3-0.2-2.7-1.9-5.2-4.3c-2.4-2.3-4.8-5.4-6.1-7.9c-0.6-1-2.4-4.7-3.4-8.8
			c-0.9-4.2-0.9-8-0.9-8.5V31.2l0-0.2c0.1-1.1,1-11.3,8.9-18.2c3.2-2.8,6.4-5.5,10.8-7.2c6.5-2.6,13.6-3.1,15.8-3.1l0,0
			c0.2,0,5.8,0.1,11.4,1.3c3.5,0.8,7.4,2.1,11.6,4.1c1.5,0.7,3.2,1.7,4.9,2.8c0-1.5,0-4.7,0-4.7h24.1v56.9h-23.6V48.6l0-0.2
			c0,0,0.2-4.2-1.1-8.4c-0.5-1.5-1.7-3.2-2.9-5c-2.6-3.7-8.3-5.7-11.4-5.7c-2.6,0-5.9,1.3-7.7,3c-1.1,1.1-2.1,2.2-2.5,3
			c-0.9,1.9-0.9,3.7-0.9,3.7c0,0,0,19.2,0,19.5c0,0.1,0.1,1.9,0.7,3.5c0.4,1.2,1.5,2.8,2,3.5c0.6,0.7,3.4,2.8,5.7,4.4l24.8,15.4
			l0.2,0.1c0.1,0.1,3.7,2.5,6.8,5.7c3.1,3.1,5.1,6.7,5.6,7.7c1.2,2.2,2.6,5.7,3.4,9.1c0.9,4.2,0.9,7.9,0.9,8.3V145.1z"/>
	</g>
	<g>
		<path fill="currentColor" d="M635.5,9.3l-89.1,0l0,0c-0.7,0-1.3,0.3-1.7,0.7c-0.4,0.5-0.7,1.1-0.7,1.7l0,7c0,1.2,0.9,2.2,2,2.4c0,0,2,0.4,3.8,1.2
			c1.7,0.8,3.3,2.1,3.9,2.7c0.4,0.4,1.6,1.8,2.2,3.4c0.7,2,0.8,4.2,0.8,4.2c0,0,0.3,117.7,0.3,117.7c0,0-0.1,2-0.6,4
			c-0.5,1.6-1.4,3.2-1.9,3.8c-0.6,0.7-2.2,2.2-3.8,3c-1.9,0.9-4,1.3-4,1.3c-1.2,0.2-2.1,1.2-2.1,2.4v7.4c0,1.2,0.9,2.3,2.2,2.4
			c0.2,0,17.4,1.7,26.4,2.3c3.3,0.2,5.6,0.5,18.2,1.8l6.9,0.8c0.7,0.1,1.4-0.1,1.9-0.6c0.5-0.5,0.8-1.1,0.8-1.8v-7
			c0-1.2-0.9-2.3-2.1-2.4c0,0-1.5-0.2-3.1-0.9c-1.8-0.8-3.8-2.1-4.4-2.8c-0.7-0.7-2-2.4-2.5-3.7c-0.8-1.8-0.8-3.6-0.8-3.7
			c0,0-0.1-48.9-0.2-55.6c1.7,0,13.2,0,13.2,0c0.1,0,1.7,0,3.3,0.7c0.9,0.4,2.1,1.4,3.6,2.8c0.6,0.6,1.5,2,2.2,3.5
			c0.8,1.9,1.2,3.9,1.2,4c0.2,1.1,1.2,1.9,2.4,1.9h10.7c1.3,0,2.4-1.1,2.4-2.4V73.8c0-1.4-1.1-2.4-2.4-2.4h-10.9
			c-1.2,0-2.3,0.9-2.4,2.1c0,0-0.2,1.7-1,3.3c-0.7,1.6-2,3.3-2.5,3.9c-0.4,0.4-1.7,1.8-3.1,2.4c-1.4,0.6-3.1,0.8-3.1,0.8
			c0,0-12.4,0-13.7,0c0-1.9-0.1-54.2-0.1-55.7c3.6,0,17,0,17,0s3,0.1,5.8,1c2,0.7,4,2.1,4.8,2.9c1,0.9,2.8,3,3.7,4.8
			c1.1,2.4,1.2,4.7,1.2,4.7V52c0,1.3,1.1,2.4,2.4,2.4h12.9c1.4,0,2.4-1.1,2.4-2.4V11.7C638,10.4,636.9,9.3,635.5,9.3z M635.5,52
			h-12.9V41.4c0,0-0.1-2.7-1.4-5.6c-1-2.3-3.1-4.6-4.3-5.7c-1.1-1-3.4-2.6-5.7-3.3c-3.3-1.1-6.6-1.1-6.6-1.1h-17.8
			c0,0-0.9-0.1-1.4,0.3c-0.4,0.4-0.3,1.3-0.3,1.3l0.1,57.5c0,0-0.1,0.8,0.3,1.2c0.4,0.3,1.4,0.3,1.4,0.3h14.6c0,0,2.1-0.1,4-1
			c1.7-0.8,3.1-2.2,3.8-2.9c0.7-0.7,2.1-2.7,2.9-4.6c0.9-2,1.2-4,1.2-4h10.9v37.7h-10.7c0,0-0.4-2.2-1.4-4.4
			c-0.7-1.8-1.9-3.5-2.7-4.3c-0.8-0.8-2.6-2.5-4.3-3.3c-2.2-1-4.3-0.9-4.3-0.9l-14.1,0c0,0-0.6-0.2-1.1,0.3
			c-0.5,0.6-0.4,1.3-0.4,1.3l0.2,56.5c0,0,0.1,2.2,1,4.5c0.7,1.8,2.3,3.8,3,4.5c0.9,0.9,3.1,2.4,5.1,3.3c1.9,0.8,3.7,1.1,3.7,1.1v7
			c-19-2.1-21.3-2.4-25.3-2.6c-9.1-0.6-26.4-2.3-26.4-2.3v-7.4c0,0,2.4-0.4,4.7-1.5c2-1,3.8-2.7,4.6-3.6c0.8-0.9,1.9-2.8,2.5-4.7
			c0.7-2.3,0.7-4.7,0.7-4.7l-0.3-117.8c0,0-0.1-2.6-0.9-5c-0.7-1.8-2-3.5-2.7-4.2c-0.8-0.9-2.7-2.3-4.6-3.2c-2.2-1-4.4-1.4-4.4-1.4
			l0-7l0,0h89.1V52z"/>
		<path fill="currentColor" d="M641.4,3.4h-5.9l0,0h-95c-0.6,0-1.3,0.3-1.7,0.7c-0.5,0.5-0.7,1.1-0.7,1.7l0.1,17.7c0,1.2,0.8,2.2,2,2.4l4.8,0.9
			c0.3,0.1,1.4,0.3,2.4,0.8c0.9,0.4,1.9,1.2,2.1,1.4c0.5,0.5,0.9,1.1,0.9,1.3c0.3,0.8,0.4,2,0.4,2.4l0.3,117.4
			c0,0.3-0.1,1.5-0.4,2.5c-0.2,0.8-0.7,1.5-0.8,1.7c-0.2,0.2-1.2,1.1-1.9,1.5c-0.8,0.4-2,0.7-2.4,0.8l-4.9,0.8c-1.2,0.2-2,1.2-2,2.4
			l0,4.9v12.7c0,1.3,1,2.3,2.2,2.4l5.3,0.5c3,0.3,18.2,1.7,26.6,2.3c3.2,0.2,5.5,0.5,18,1.8l13.4,1.5c0.7,0.1,1.4-0.1,1.9-0.6
			c0.5-0.5,0.8-1.1,0.8-1.8l0-18.6c0-1.2-0.9-2.2-2.1-2.4l-5.1-0.7l-1.6-0.5c-1.1-0.5-2.3-1.3-2.6-1.6c-0.2-0.2-1-1.3-1.2-1.7
			c-0.3-0.6-0.4-1.4-0.4-1.7c0,0,0,0,0,0c0-1-0.1-39.4-0.1-49.5c2.8,0,7.3,0,7.3,0c0.1,0,0.6,0.1,0.9,0.2c0,0,0.6,0.4,1.9,1.6
			c0,0,0.5,0.8,0.8,1.6l0.9,2.9l1,4.6c0.2,1.1,1.2,1.9,2.4,1.9l4.8,0h16.5c1.3,0,2.4-1.1,2.4-2.4V67.9c0-1.3-1.1-2.4-2.4-2.4h-21.9
			c-1.2,0-2.2,0.9-2.4,2.1l-0.7,5.1l-0.5,1.8c-0.4,0.9-1.2,2-1.4,2.2c-0.8,0.8-1.2,1-1.2,1c0,0-0.9,0.2-1,0.2c-0.3,0-4.8,0-7.5,0
			c0-4.3-0.1-43-0.1-44c3.3,0,11.2,0,11.2,0c0.1,0,2.1,0.1,4,0.7c0.8,0.3,2.1,1.1,2.9,1.7c0.6,0.5,1.8,1.9,2.1,2.8
			c0.6,1.2,0.6,2.5,0.7,2.6l0,16.1c0,1.3,1.1,2.5,2.4,2.5h24.6c1.4,0,2.4-1.1,2.4-2.5v-52C643.8,4.5,642.7,3.4,641.4,3.4z
			 M641.4,57.9h-24.6c0,0,0-15.9,0-16.3c0-0.2-0.1-1.8-0.9-3.4c-0.6-1.3-2-3-2.8-3.7c-0.9-0.8-2.5-1.8-3.7-2.2
			c-2.3-0.8-4.7-0.8-4.7-0.8s-8.7,0-13.6,0c0,6.7,0.1,41.9,0.1,48.9c4.1,0,9.7,0,10.1,0c0.4,0,1.3-0.2,1.9-0.4
			c0.3-0.1,0.9-0.5,2-1.6c0.3-0.3,1.3-1.7,1.8-2.9c0.5-1.2,0.7-2.4,0.7-2.4l0.7-5.1h21.9v49.4h-16.5H609l-1-4.7c0,0-0.4-1.7-1-3.3
			c-0.5-1.1-1.2-2.2-1.4-2.4c-1.7-1.6-2.5-2-2.6-2.1c-0.8-0.3-1.6-0.4-1.9-0.4c0,0-5.6,0-9.8,0c0,12.9,0.2,52.1,0.2,52.1
			c0,0,0.1,1.3,0.6,2.5c0.4,0.9,1.4,2.2,1.8,2.6c0.4,0.4,1.9,1.4,3.3,2c1.1,0.5,2.2,0.6,2.2,0.6l5.1,0.8v18.6l-13.4-1.5
			c-12.6-1.4-14.8-1.6-18.1-1.8c-9.1-0.6-25.9-2.2-26.6-2.3l-5.3-0.5v-12.7l0-4.9l4.9-0.8c0.5-0.1,1.9-0.4,3.1-1
			c1.1-0.6,2.3-1.7,2.7-2.1c0.3-0.3,1-1.4,1.3-2.6c0.4-1.3,0.5-2.7,0.5-3.2c0-3.4-0.3-117.4-0.3-117.4c0-0.5-0.2-2-0.6-3.2
			c-0.2-0.6-0.8-1.5-1.5-2.2c-0.4-0.4-1.6-1.4-2.8-1.9c-1.1-0.5-2.5-0.9-2.9-0.9l-4.8-0.9l-0.1-17.7h95h5.9v0l0,0V57.9z"/>
	</g>
	<g>
		<path fill="currentColor" d="M702.3,187.2c0,0-1.6-0.4-3.1-1.4c-2.2-1.3-4.3-3.2-4.7-3.8c-0.4-0.6-1.8-2.5-2.4-4.4c-0.6-2.1-0.7-4.4-0.7-4.5
			c0,0,0-137.2,0-139.9c0-0.2,0.2-2.5,0.8-4.5c0.4-1.3,1.1-2.5,1.4-3c0.5-0.7,1.9-2.1,3.4-3.1l2.1-1.2c0.7-0.4,1.4-1.4,1.4-2.2v-7.3
			c0-0.6-0.3-1.3-0.7-1.7c-0.5-0.5-1.1-0.7-1.7-0.7l0,0l-46.9,0.1c-1.4,0-2.4,1.1-2.4,2.5v6.9c0,0.9,0.7,1.8,1.4,2.2l2.6,1.6
			c1.2,0.9,2.2,1.8,2.5,2.2c0.5,0.6,1.5,1.9,2,3.3c0.7,1.7,0.8,3.8,0.8,3.8c0-0.2,0.1,131,0.1,131c0,0,0,2-0.5,3.9
			c-0.5,1.8-1.4,3.6-1.7,4c-0.7,0.8-2.2,2.5-3.9,3.4c-1.8,1-4,1.3-4.1,1.3c-1.2,0.2-2.1,1.2-2.1,2.4v7.2c0,1.1,0.8,2.1,1.9,2.4
			l28.8,6.3c4.3,0.9,24.1,5.9,24.3,5.9c0.7,0.2,1.5,0,2.1-0.4c0.6-0.5,0.9-1.2,0.9-1.9l0-7.9C704.1,188.4,703.4,187.5,702.3,187.2z
			 M677.3,191.4c-4.4-1-28.8-6.3-28.8-6.3V178c0,0,2.6-0.3,4.9-1.6c2.2-1.2,4-3.3,4.6-4.1c0.6-0.8,1.7-2.9,2.1-4.9
			c0.6-2.3,0.6-4.5,0.6-4.5l-0.1-131.2c0,0-0.2-2.4-1-4.5c-0.7-1.7-1.8-3.2-2.4-3.9c-0.5-0.7-1.8-1.8-3-2.6
			c-1.5-1.1-3.1-1.8-3.1-1.8v-6.9h0l46.9-0.1v7.3c0,0-1.2,0.6-2.5,1.5c-1.5,1.1-3.1,2.6-3.9,3.6c-0.5,0.7-1.3,2.2-1.8,3.7
			c-0.7,2.5-0.9,5.1-0.9,5.1l0,140c0,0,0,2.6,0.8,5.3c0.7,2.2,2.2,4.3,2.8,5.2c0.8,1,3.2,3.1,5.4,4.5c1.9,1.1,3.7,1.6,3.7,1.6l0,7.9
			C701.7,197.4,681.7,192.4,677.3,191.4z"/>
		<path fill="currentColor" d="M710,185.1c0-1.1-0.7-2-1.8-2.3l-4.3-1.2l-1.7-0.7c-1.5-0.9-3-2.2-3.2-2.5c-0.6-0.8-1.2-1.8-1.4-2.5
			c-0.3-1-0.4-2.3-0.4-2.8c0,0,0-136.5,0-139.6c0.1-0.5,0.2-1.9,0.6-3.2l0.5-1.2c0.1-0.2,1-1,2-1.7c0.2-0.1,4.2-2.5,4.2-2.5
			c0.6-0.4,1.1-1,1.2-1.7l0.6-3.6c0-0.1,0-0.3,0-0.4V5.9c0-0.7-0.3-1.3-0.7-1.7c-0.4-0.5-1.1-0.7-1.7-0.7v0l-58.6,0.2
			c-1.3,0-2.4,1.1-2.4,2.4v16.1c0,0.9,0.4,1.7,1.2,2.1l3.4,2c0,0,1.6,1,2,1.2c0.1,0.1,1.4,1.1,1.4,1.1c0.2,0.2,0.8,1.1,1.1,1.6
			c0.2,0.6,0.4,1.4,0.4,2c0,0.3,0.1,130.7,0.1,130.7s0,1.4-0.3,2.6c-0.2,0.9-0.6,1.7-0.8,2c-0.5,0.6-1.3,1.4-1.9,1.7
			c-0.7,0.4-1.8,0.6-2.1,0.6l-5,0.7c-1.2,0.2-2.1,1.2-2.1,2.4l0,5.1v11.9c0,1.2,0.8,2.1,1.9,2.4l33.4,7.3c3,0.7,14.3,3.5,24,5.9
			c0.2,0,7.5,1.9,7.5,1.9c0.7,0.2,1.5,0,2.1-0.4c0.6-0.5,0.9-1.2,0.9-1.9L710,185.1z M700.3,203.1c-0.2-0.1-20-5-24.2-5.9l-33.4-7.3
			V178l0-5.1l5.1-0.7c0.4-0.1,1.9-0.3,2.9-0.9c1.1-0.6,2.2-1.8,2.7-2.5c0.2-0.3,0.8-1.6,1.1-2.8c0.4-1.5,0.4-3.1,0.4-3.1
			s-0.1-130.2-0.1-130.9c0-0.5-0.2-1.7-0.6-2.7c-0.3-0.9-1.1-1.9-1.5-2.4c-0.2-0.2-0.8-0.8-1.8-1.5l-2.1-1.2l-3.4-2V6L698,5.9h5.9
			v13.2l-0.6,3.6l-4.3,2.6c-1.2,0.9-2.3,2-2.6,2.4c-0.2,0.3-0.6,1.1-0.9,1.9c-0.4,1.6-0.6,3.3-0.7,3.7c0,6.4,0,139.7,0,139.7
			c0,0.5,0.1,2.1,0.5,3.5c0.4,1.1,1.2,2.5,1.9,3.3c0.5,0.5,2.2,2,3.8,3c1.1,0.7,2.3,1,2.3,1l4.3,1.2l0.1,19.8L700.3,203.1z"/>
	</g>
	<g>
		<path fill="currentColor" d="M811,155.4c-0.5-0.6-1.2-0.9-1.9-0.9l-7.6,0c-1.1,0-2.1,0.7-2.4,1.8l-10,35.1c0,0-0.9,2.4-0.9,2.4c-0.8,1.6-2,3.3-2.9,4.2
			c-0.9,0.9-3.1,2.5-4.5,3.3c-1.1,0.6-1.8,0.8-2.8,1c-0.9,0.2-4.4,0.4-6.2,0c-0.3-0.1-0.8-0.2-0.8-0.2c-0.2-0.1-8.6-2.7-8.6-2.7
			s-0.3-0.1-0.5-0.2c0-0.1,0-0.2,0-0.2s-0.1-166.7-0.1-166.7c0,0.1,0.1-2.2,1.1-4.3c0.6-1.4,2.2-3,2.9-3.7c0.9-0.8,4.3-2.3,6.9-3.3
			c1-0.4,1.6-1.3,1.6-2.3v-6.8c0-1.4-1.1-2.5-2.4-2.5h-53.6l0,0c-1.3,0-2.4,1-2.4,2.4l-0.3,6.9c0,1.1,0.6,2.1,1.7,2.4
			c2.7,0.9,7,2.8,8.2,4.2c0.8,0.9,1.7,2.5,2.2,4c0.7,2.4,0.7,4.8,0.7,4.8v147.8c0-0.1-0.1,2.4-0.7,4.5c-0.4,1.4-1.2,2.5-1.8,3.1
			c-0.5,0.6-1.8,1.4-3.2,1.9c-2,0.7-4.1,0.8-4.1,0.8c-1.3,0.1-2.3,1.1-2.3,2.4v7.5c0,1.1,0.7,2,1.7,2.3c0.2,0.1,20.6,6.2,34.7,11
			c14,4.7,43.2,15.9,43.5,16c0.7,0.3,1.4,0.2,2.1-0.2c0.6-0.4,1.1-1,1.2-1.7l12.2-72.1C811.6,156.7,811.4,156,811,155.4z
			 M796.9,229.1c0,0-29.4-11.2-43.6-16c-14.2-4.8-34.7-11-34.7-11v-7.5c0,0,2.4-0.2,4.7-0.9c1.7-0.6,3.4-1.6,4.2-2.6
			c0.9-0.9,1.8-2.3,2.4-4.1c0.7-2.4,0.8-5.2,0.8-5.2V34c0,0,0-2.8-0.8-5.5c-0.6-1.9-1.7-3.8-2.7-4.9c-2.2-2.6-9.3-5-9.3-5l0.3-6.8
			h53.6v6.8c0,0-6,2.2-7.7,3.8c-0.7,0.7-2.6,2.6-3.5,4.4c-1.2,2.6-1.3,5.3-1.3,5.3l0.1,166.6c0,0-0.1,1.2,0.4,1.8
			c0.4,0.6,1.9,1.1,1.9,1.1l8.4,2.6c0,0,0.8,0.3,1.2,0.3c1.5,0.3,5.9,0.2,6.9,0c0.9-0.1,2-0.4,3.7-1.2c1.7-0.9,4.1-2.7,5.1-3.7
			c1.2-1.2,2.5-3.2,3.4-4.9c0.8-1.5,1.1-2.8,1.1-2.8l10-35.1l7.7,0L796.9,229.1z"/>
		<path fill="currentColor" d="M962.2,285c0,0-1.9-0.2-3.6-0.8c-1.8-0.6-3.4-1.6-3.9-2.1c-0.7-0.7-2.2-2.5-2.9-3.8c-0.9-1.9-0.9-3.7-0.9-3.8
			c0,0-0.1-241.9-0.1-241.9c0,0.1,0.1-1.9,0.8-3.8c0.5-1.4,1.7-2.9,2.5-3.7c0.7-0.7,2.2-1.8,3.7-2.5c2.1-0.9,4.3-1.4,4.3-1.4
			c1.1-0.2,1.9-1.2,1.9-2.4v-7.1c0-1.3-1.1-2.5-2.4-2.5h-54.1l0,0c-1.2,0-2.2,0.8-2.4,2c0,0-23,111.2-23.2,112.2
			c-1.2,0-4.2-0.1-5.3-0.1c-0.1-0.2-0.2-0.5-0.2-0.5c0,0.1-23.4-111.5-23.4-111.5c-0.2-1.1-1.2-1.9-2.4-1.9H806
			c-0.6,0-1.3,0.3-1.7,0.7c-0.4,0.5-0.7,1.1-0.7,1.8l0.1,7.1c0,1.2,0.9,2.2,2,2.4c0,0,2.1,0.4,4.1,1.3c1.8,0.8,3.4,2.3,4.1,3
			c0.8,0.9,1.8,2.6,2.2,4.3c0.4,1.7,0.4,3.5,0.4,3.5c0,0.1,0.1,178.4,0.1,178.4c0,0.1,0,1.6-0.5,3.1c-0.5,1.5-1.8,3-2.4,3.6
			c-0.7,0.7-2.1,1.6-3.6,2.2c-2.1,0.8-4.5,1.3-4.5,1.3c-1.2,0.2-2,1.2-2,2.4v8.5c0,1,0.6,1.9,1.5,2.3l17.3,7.7l21.2,9.8
			c0.8,0.3,1.6,0.3,2.3-0.2c0.7-0.4,1.1-1.2,1.1-2.1V243c0-1-0.6-1.9-1.5-2.3c0,0-2.1-0.9-4.1-2.1c-1.7-1-3.2-2.3-3.7-3
			c-0.7-0.9-2-2.9-2.6-4.7c-0.8-2.3-0.8-4.5-0.8-4.6c0,0,0.1-132.5,0.2-145.3c1.3,0,5.1,0,6.2,0c2.4,10.9,31.6,146.2,31.6,146.2
			c0.2,1.1,0.8,5.5,2.4,5.6c1.5,0,2.3-4.4,2.5-5.6c0,0,30.3-145.3,30.5-146.3c1.5,0,5.1,0,6.6,0.1c0,13.3-0.1,190-0.1,190
			c-0.1,3.2-0.8,7.5-1.5,8.5l-0.4,0.5c-0.8,1.1-2.1,2.7-3.6,3.6c-2.1,1.2-4.8,1.6-4.8,1.6c-1.2,0.2-2.1,1.2-2.1,2.4v7.5
			c0,1.3,1.1,2.4,2.4,2.4h58c0.7,0,1.3-0.2,1.7-0.7c0.5-0.5,0.7-1.1,0.7-1.7l-0.1-7.7C964.4,286.1,963.5,285.1,962.2,285z
			 M904,295.1v-7.4c0,0,3.2-0.5,5.7-1.9c2.2-1.3,3.8-3.6,4.7-4.7c1.8-2.3,2.1-10,2.1-10l0.1-190.7c0,0,0.1-0.9-0.5-1.4
			c-0.4-0.4-1.2-0.3-1.2-0.3l-7.8-0.1c0,0-0.8-0.1-1.2,0.2c-0.3,0.3-0.5,1.2-0.5,1.2l-30.7,146.8L842.8,79.9c0,0-0.1-0.9-0.5-1.1
			c-0.3-0.3-1-0.1-1-0.1h-7.9c0,0-0.6-0.1-1.2,0.3c-0.3,0.2-0.3,1.1-0.3,1.1l-0.2,146.4c0,0,0.1,2.6,0.9,5.3c0.7,2.2,2.2,4.4,3,5.4
			c0.8,1,2.5,2.5,4.3,3.6c2.2,1.4,4.4,2.3,4.4,2.3v7.5c0,0-11.4-5.4-21.2-9.8c-9.8-4.5-17.4-7.7-17.4-7.7v-8.5c0,0,2.6-0.5,5-1.4
			c1.9-0.8,3.5-1.9,4.4-2.7c0.9-0.8,2.4-2.7,3-4.5c0.7-2,0.7-4,0.7-4l-0.1-178.3c0,0,0.1-2.1-0.5-4.3c-0.6-2.1-1.8-4.2-2.8-5.3
			c-1-1.1-2.9-2.6-4.9-3.6c-2.3-1.1-4.7-1.5-4.7-1.5l-0.1-7.1h44.7l23.4,111.6c0,0,0.3,1.2,0.8,1.8c0.5,0.5,1.3,0.6,1.3,0.6l6.5,0.1
			c0,0,0.7,0,1-0.3c0.3-0.3,0.6-1.1,0.6-1.1l23.4-112.6h54.1v7.1c0,0-2.4,0.5-4.7,1.6c-1.8,0.8-3.5,2-4.5,2.9c-1,1-2.4,2.8-3.1,4.6
			c-0.9,2.3-1,4.6-1,4.6l0.1,241.9c0,0,0,2.3,1.1,4.8c0.8,1.8,2.7,3.9,3.4,4.6c0.8,0.8,2.8,2,4.8,2.7c2,0.7,4.1,0.9,4.1,0.9l0.1,7.7
			H904z"/>
		<path fill="currentColor" d="M970.2,282.2c0-1.2-0.9-2.3-2.2-2.4l-5.2-0.6l-2.3-0.5c-0.8-0.3-1.5-0.7-1.8-0.9c-0.6-0.7-1.4-1.7-1.5-2
			c-0.3-0.8-0.4-1.5-0.4-1.5l-0.1-241.5c0-0.2,0.1-1.2,0.4-1.9c0.2-0.4,0.7-1.2,1.1-1.6c0.2-0.2,1.1-0.8,2-1.3c1.5-0.7,3.1-1,3.1-1
			l4.6-1c1.1-0.2,1.9-1.2,1.9-2.4l0-4.7V5.8c0-1.4-1.1-2.4-2.4-2.4h-5.9h-58.9c-1.2,0-2.2,0.8-2.4,1.9c0,0-17.3,83.6-21.2,102.1
			C875.3,89,857.7,5.4,857.7,5.4c-0.2-1.1-1.2-1.9-2.4-1.9H800c-0.6,0-1.3,0.3-1.7,0.7c-0.5,0.5-0.7,1.1-0.7,1.7l0.3,17.9
			c0,1.2,0.9,2.2,2,2.4l4.8,0.8c0.3,0.1,1.6,0.3,2.6,0.8c0.9,0.4,1.9,1.3,2.2,1.6c0.2,0.2,0.8,1.2,1,1.9c0.2,0.6,0.2,1.5,0.2,1.7
			c0,0,0,0.2,0,0.2l0.1,115.4l-13.7,0c-1.1,0-2.1,0.7-2.4,1.8c0,0-11.1,39-11.2,39.2c0,0.1-0.5,1.3-0.6,1.5
			c-0.5,1.1-1.3,2.2-1.8,2.7c-0.4,0.4-2.2,1.7-3.1,2.2c0,0-0.6,0.2-0.8,0.3c-0.6,0-4,0-4.6,0c-0.4-0.1-3.2-1-5-1.5
			c0-3.5-0.1-162.4-0.1-162.4c0-0.1,0.2-1.2,0.6-2.1c0.1-0.3,0.8-1,1.4-1.6c0.5-0.3,2.7-1.4,5.1-2.3l3.9-1.4c1-0.4,1.6-1.3,1.6-2.3
			l0-16.7c0-0.7-0.3-1.3-0.7-1.7c-0.4-0.5-1.1-0.7-1.7-0.7h-5.9h-59.2c-1.3,0-2.4,1-2.4,2.4c0,0-0.6,16.9-0.6,17c0,1,0.7,2,1.7,2.3
			l4.2,1.4c2.6,0.9,5,2.2,5.6,2.6c0.3,0.4,0.8,1.2,0.9,1.7c0.5,1.5,0.5,3.2,0.5,3.2v147.5c0,0.4-0.2,1.9-0.5,3
			c0,0.2-0.2,0.4-0.4,0.7c0,0,0,0,0,0c0,0,0,0,0,0c0,0,0,0,0,0c-0.2,0.1-0.8,0.4-0.8,0.4c-1,0.3-2.3,0.5-2.7,0.5l-5.4,0.4
			c-1.3,0.1-2.3,1.2-2.3,2.4l0,5.5v11.9c0,1.1,0.7,2,1.7,2.3l4.2,1.3c2.2,0.7,21.3,6.5,34.5,10.9c13.2,4.5,40.2,14.7,43.2,15.9
			c0,0,2.7,1,4.7,1.8c0.2,0.1,0.3,0.2,0.5,0.3l20.8,9.2c0,0,29.4,13.7,29.4,13.7c0.8,0.3,1.6,0.3,2.3-0.2c0.7-0.5,1.1-1.2,1.1-2.1
			l0-9.2v-11.4c0-1-0.6-1.9-1.5-2.2l-3.6-1.5l-3.2-1.7c-1.1-0.7-2-1.5-2.2-1.7c-0.5-0.6-1.3-2-1.7-2.9c-0.5-1.4-0.5-2.8-0.5-2.9
			c0,0,0.1-87.1,0.1-118.9c5.5,25.1,28.4,130.2,28.4,130.2s0.4,1.9,1,2.6c0.6,0.7,2.3,0.6,2.3,0.6h6c0,0,1-0.1,1.7-0.8
			c0.8-0.7,1.2-2.3,1.2-2.3s22.3-106.5,27.4-131c0,34.3-0.1,164.5-0.1,164.5c-0.1,2.3-0.5,4.7-0.7,5.4c-0.5,0.6-1.4,1.8-1.9,2.1
			c-0.8,0.4-2.2,0.8-2.7,0.9l-5,0.8c-1.2,0.2-2.1,1.2-2.1,2.4l0,5V301c0,1.4,1.1,2.4,2.4,2.4h69.8c0.6,0,1.3-0.2,1.7-0.7
			c0.4-0.5,0.7-1.1,0.7-1.7C970.4,301,970.2,282.2,970.2,282.2z M898.2,301L898.2,301L898.2,301l0-13.3l0-5l5-0.8
			c0.5-0.1,2.4-0.5,3.6-1.2c1-0.6,2-1.9,2.6-2.7c0,0,0.1-0.2,0.2-0.3c0.5-1,0.9-4.1,1-6.6c0,0,0.1-178.6,0.1-186.6
			c-0.2,0-0.2,0-0.3,0c-1,4.9-31.7,151.6-31.7,151.6s-0.3,1.1-0.7,1.4c-0.3,0.3-1.1,0.3-1.1,0.3l-4.6-0.1c0,0-0.7,0.1-1.1-0.4
			c-0.4-0.4-0.6-1.3-0.6-1.3S839,89.7,837.8,84.6c0,24.7-0.2,141.7-0.2,141.7c0,0,0.1,1.8,0.6,3.6c0.4,1.3,1.5,2.9,2.1,3.7
			c0.3,0.3,1.4,1.3,2.8,2.2c1.7,1.1,3.5,1.8,3.6,1.8l3.6,1.5v11.4l0,9.2l-29.5-13.7l-17.3-7.7l-6-2.6l-2.8-1.1
			c-0.3-0.1-29.5-11.2-43.4-15.9c-14-4.7-34.3-10.9-34.5-10.9l-4.2-1.3v-11.9l0-5.4l5.4-0.4c0.5,0,2-0.2,3.3-0.6
			c0.9-0.3,1.6-0.8,1.8-1c0.3-0.3,0.8-0.9,1-1.7c0.4-1.4,0.5-3.1,0.6-3.7c0-0.3,0-147.6,0-147.6c0,0,0-2-0.6-3.9
			c-0.3-1-1-2.1-1.5-2.7c-0.8-0.8-4-2.3-6.7-3.2l-4.2-1.4l0.6-16.9h59.3h5.9v16.7l-3.9,1.4c-2.3,0.9-5.1,2.1-5.8,2.7
			c-0.8,0.7-1.8,1.9-2.1,2.5c-0.6,1.2-0.8,2.6-0.8,3.1c0,0.5,0.1,160,0.1,164.2c2.3,0.7,5.3,1.8,5.8,1.9c0.5,0.1,1.5,0.4,1.5,0.4
			c1.1,0.2,4.3,0.1,5.1-0.1c0.1,0,0.6-0.1,1.5-0.6c1.2-0.6,3.1-2,3.7-2.6c0.7-0.7,1.7-2.1,2.3-3.3c0,0,0.7-1.7,0.7-1.7l11.2-39.3
			l13.7,0.1l2.5,0l0-2.4l-0.1-115.2v-0.2v-0.1c0-0.4,0-1.5-0.3-2.4c-0.3-1.1-1.1-2.4-1.5-2.9c-0.5-0.5-1.8-1.6-3-2.2
			c-1.3-0.6-2.7-0.9-3.2-1l-4.8-0.8L800,5.9h55.4c0,0,22.8,108.4,23.9,113.5c1.4-6.9,23.5-113.6,23.5-113.6h58.9h5.9v12.9v4.7
			l-4.6,1c0,0-1.9,0.4-3.6,1.2c-1.2,0.6-2.3,1.4-2.7,1.8c-0.6,0.6-1.4,1.7-1.7,2.5c-0.4,1.1-0.6,2.3-0.6,2.8
			c0,4,0.1,241.6,0.1,241.6c0,0,0,1.2,0.6,2.4c0.3,0.7,1.4,2.1,2.1,2.8c0.3,0.2,1.4,0.9,2.6,1.3c1.1,0.4,2.5,0.6,2.9,0.6l5.2,0.6
			l0.1,18.8H898.2z"/>
	</g>
	<path fill="currentColor" d="M879.3,293.4L879.3,293.4c-0.7-0.4-72-43.5-162-69.5c-72.7-20.9-144.9-31.5-214.8-31.5c-50.6,0-113.8,3.2-199.8,26.5
		c-93.9,25.5-171.4,71.4-172.1,71.8c-0.5,0.3-0.7,1-0.4,1.6c0.3,0.6,1,0.7,1.6,0.4c0.7-0.4,78-46.1,171.6-71.6
		c85.7-23.3,148.8-26.5,199.2-26.5c69.7,0,141.7,10.6,214.2,31.5c89.7,25.8,160.7,68.8,161.4,69.2c0.5,0.3,1.2,0.1,1.6-0.4
		C880,294.4,879.9,293.7,879.3,293.4z"/>
	<g>
		<path fill="currentColor" d="M1.3,27.5l12.6,12.5l-0.3-10.4l-2.9-3.2l-9-2.4l-1.7-1.9C0,23,0,24.8,0.4,26C0.7,27,1.3,27.5,1.3,27.5z"/>
		<path fill="currentColor" d="M60.7,273.7l12.8,0.3l3.6-0.4l8.3-4.5l5-6.5l1.6-10.3V64.8c0-2,1.9-4.9,4.4-5.9c3.1-1.2,5.6,0.6,5.6,0.6l0.1-20.8
			l-1.4-10.5l-5.1-2.8L89.5,25l-1.2-8.3l-1.5-0.1c0,0-10.6-10.5-11.7-11.4c-1.1-1-2.1-1.5-3.3-1.6c-1.1,0-1.9,0.7-1.9,0.7l2.7,0.7
			v19.1l-4.2,1.1l-6.4,2.1l-2.2,3.5L60.6,247L60.7,273.7z"/>
		<path fill="currentColor" d="M151.8,219.3l7.5,3.9l10-0.1l6.3-3.8c0,0,0-151.4,0-154.2c0-2.5,1.6-4.6,3.9-5.7c2-0.9,4.8,0.2,4.8,0.2V31.2l-3.6-5
			l-7-0.8l-1.8-0.9l-0.5-9.6h-2l-8.6-8.4c-1.4-1.4-2.5-2.9-4.1-2.9c-1.4,0-1.4,1.5-1.4,1.5l2.4,0.5v19.3l-9.3,1l-3.4,4.1l0.9,179.5
			L151.8,219.3z"/>
		<path fill="currentColor" d="M283.8,182.3l10.6-4.1l3.6-8.1l0.3-51.6l-0.1-41.7c0,0,28.9,28.6,29.4,29c0.5,0.5,1.2,0.7,1.6,0.7
			c0.5,0,14.9,0.1,14.9,0.1L355.8,32l-1.4-4.1l-9-3.1l-1.7-1.3l-0.3-4.7h-1.7c0,0-9.9-9.8-12.2-11.9c-2.2-2.1-2.7-3.2-4.3-3.2
			c-1,0-2.1,1.5-2.1,1.5h0l3.2,0.3l-0.4,68.9L299,74.7l-1.1-1.2L297.8,44l-5.1-11.7l-9.2-4.2l-8.1,2.9l-4.5,7.9L270.7,169l2.6,8.4
			L283.8,182.3z"/>
		<path fill="currentColor" d="M371.7,106.7c1.2,0,12.6,0.1,14,0c1.4,0,1.9-1.4,1.7-2.4c-0.2-0.9-8.6-50.7-8.7-51c-0.1-0.3-0.3-0.5-0.5-0.5
			c-0.2,0-0.4,0.2-0.5,0.5l0,0c0,0.3-7.6,48.8-7.9,50.9C369.6,105.7,370.5,106.7,371.7,106.7z"/>
		<polygon points="426.9,4.9 426.9,4.9 426.9,4.9 		"/>
		<path fill="currentColor" d="M428,102.7l4.8,31.7l2.9,19.2l4.8,4.9l4.9,1.8l0.1-19.8l-0.1-27l0.7-1l10.7,0.4c0,0-3.2-16.6-3.4-17.6
			c-0.2-1.1,0.8-1.2,1.2-0.5c0.5,0.7,12.6,16.9,12.6,16.9l0.7,0.4l2.3,1.5l0.3,25.9l3.4,7.9l8.4,3.8l7.3-2.2l4.3-6.9l-0.1-23.6
			l-2.6-3.4l-18.3-11.8l-18.3-13l-6.1-8.1l-3-13l-0.1-33.4l0.8-8.8l2-7.1h-1.5c0,0-11.9-11.8-13.2-13.2c-1.4-1.3-2.7-3-4.3-3.1
			c-1.6,0-2.3,1.5-2.3,1.5l3.3-0.1l0.3,19.6l-0.9,1.7l-7.7-0.6l-4.2,1.3l-1.4,2.4l6.1,39.7L428,102.7z"/>
		<path fill="currentColor" d="M510,79.9c0,0-0.1-9.7,0-11.4c0-1.7,1-1,1.7-0.4c0.7,0.6,26.8,26.5,26.8,26.5l13.6,0.1l-0.2-64.9l-1.2-1.7l-10.2-3.5
			l-1.4-1.2l-0.2-16.8l-0.3-0.9h-1c0,0-0.3-0.2-0.4-0.4c-0.7-0.8-1.2-1.8-3-1.8l-1.3,1.6l2.3,0.3l0.7,57.8l-1.8,0.8l-23.7-0.4
			l-0.7-0.9l0.1-14.7l-2-9.9l-6.2-6.7l-6.8-1.1l-5.2,1.8l-3.8,4.6v25.3l4.1,4.5L510,79.9z"/>
		<path fill="currentColor" d="M775.8,197.6l5.5-2.2l4-7.1l10.6-37.9c0,0-0.2-83.1-0.1-86c0-2.8,2.8-5.8,5.4-5.9c1.9,0,10.7,0,10.7,0l0.1-27.4l-2.9-3.4
			l-9.1-2.4l-1-1.5l-0.1-2.6h-1.9c0,0-13.1-12.7-14.7-14.4c-1.6-1.7-2.6-3.3-4.6-3.3c-1.4,0-3,1.6-3,1.6l0,0l4.2,0l0.2,18.2
			l-9.6,3.9l-2.8,3.4l-0.1,164.5l2.6,1.3L775.8,197.6z"/>
		<path fill="currentColor" d="M805.6,210.9c-1,5.9,0.1,6.6,1,6.6c0.5,0,2.8-0.2,4.5-2c1.4-1.5,2.2-3.3,2.3-5.3c0.1-1.9,0-28.2-0.3-32.7
			c-0.3-4.5-1.5-1.7-1.7,0.2C811.5,177.6,806.7,204.9,805.6,210.9z"/>
		<path fill="currentColor" d="M861.5,29.9l9,41.7l8.4,39.8l0.8-0.1l6.9-33.4l7.9-38.6h-2.1c0,0-31-30.7-32.8-32.5c-1.8-1.8-2.7-3.3-4.3-3.3
			c-1.6,0-3,1.6-3,1.6l3.7,0.1L861.5,29.9z"/>
		<path fill="currentColor" d="M989.4,59.1L989.4,59.1c2.9-1.5,7.7-1.5,8.6-1.5c1.7-0.1,2-1.8,2-1.8s0.1-16.8,0-18.7c-0.1-1.9-0.5-2.2-1-2.7
			c-0.5-0.5-26.7-27.1-28-28.6c-1.3-1.5-1.7-2.3-3.8-2.4c-1.4,0-2.2,1.3-2.2,1.3l3.7,0.8l-0.1,18.4l-9.9,2.7l-2.5,3l-0.6,244.6
			l1.1,3.3l4.8,2l7.5,1.4l0.3,20l-0.6,0.8l-70.4,0.2l-1-0.6l-0.9-3.2l-2.2-0.1l-9.5-9.7V272c0,0,0-2.2-0.3-3.1
			c-0.3-0.9-1.3-1.7-1.3-1.7l-9.3-9.6c0,0-2.1-2.3-2.5-3.1c-0.4-0.8-0.4-2.4-0.4-2.4s0.1-8,0.1-9.2c0-1.1,1-0.9,1.4-0.6
			c0.4,0.3,22.6,21.6,22.6,21.6l14.4,0.3l0.4-159.8l-2.3-0.3l-27.7,132.7l-1.6,2.1l-7.2-0.2l-1.4-1.9L841.1,104l-2,0.5l-0.3,119
			l1.1,7.3l4.6,3.8l7,2.6l0.1,22.2l-0.6,1.3c0,0-43.4-20.2-68.8-30c-25.4-9.7-70.8-23.7-70.8-23.7l0-19.3l9.6-0.7l2.5-2.4l0.1-153.5
			l-2.3-3.4l-10.9-4.6l0.2-15.8l-2,0c0,0-0.6-0.8-1.4-1.8c-0.9-1-1.4-2.1-3-2.1c-0.8,0-1.5,0.9-1.5,0.9l2.5,0.2l-0.4,18.2l-6.1,3.3
			l-2.4,4.4l-0.5,143.6l2.3,4.7l6.9,3.7l3.8,1.2l0.5,21.1l-1.9,0.8l-23.1-5.5l-42.9-9.8l-0.1-2.4l-26.1-26c0,0,0-28.3,0-29.8
			c0-1.5,1-1.8,1.9-0.8c1.2,1.3,15.7,15.3,15.7,15.3l16.9-0.1l4,1.5l-0.1-113.5l-2.5-8.2l-8.7-4.7l0.1,36.5l-27,0.2V40.5l-3.9-6.5
			l-5.2-1.4l-14.3-0.6v46.7H603l3.1-4.6l1-6.5l1.1-1.1h22.1l1.3,0.8l-0.3,49.5l-0.9,1.2l-20.3,0.5l-2.2-0.8l-1.6-4.9l-2.5-6.4
			l-2.6-1.1h-8.7l0.1,53.4l4.3,3.5l6.4,0.9l2.1,0.8l0.5,19l-2,1.5l-63.6-6.3l-0.5-1.2l0.4-17.6l0.2-1l7.6-1.2l3.1-3.9l1.2-3.7
			l-0.7-34.5c0,0-23-23-24.1-24.2c-1.1-1.3-2.5-0.8-2.5-0.8l7,9.3l3.8,11.8l0.2,33.6l-3.8,14l-8,10.3l-13.2,8.3l-12.9,2.2l-10-0.8
			l-17-5.4l0.6,4.5l-1.5,0.9l-23.6,0.2l-1.4,0.2l-57.2,6.8l-1.1-0.5l-0.3-19.1l4.1-1.4l4.1-2.6l0.1-2.8l-4.7-29l-22.5-0.1l-6.1,36.9
			l1.2,1.3l8.3-0.2l1.1,0.9l0.1,17.8l-1.1,1.4l-14.8,3.3l-28,5.6l-2.4-0.1l-0.3-3l0.3-13l1.3-3.2l5.3-5.1l2-5l2.4-11.9l3.5-26.2
			c0,0-9.1-8.7-11.3-11c-2.2-2.3-2.7-2.3-3.4-2.3c-0.7,0-0.6,1.3-0.6,1.3l1.9,0.7v26.8l-0.7,21.4l-0.4,9.9l-1.6,5.3l-6.8,12
			l-9.6,9.4l-20.9,9.6l-18.9,0.6l-12.9-2.7l-12.4-6.4l-4-4.7l-6.7-9.5l-2.8-9.2l-1-145.2l2.3-8.8l2.3-5.1l4.4-6.7
			c0,0-9.3-9.3-10.3-10.4c-1-1.1-1.9-1.2-3-1.2s-1.4,0.9-1.4,0.9l2.3,0.7v17.9l-3.3,1.5l-7.2,3.1l-2.3,2.8v171.7l-3.3,14.1l-3.1,8.5
			l-5.6,8.9l-5.4,6.9l-7.9,6.9l-8.5,5.4l-14.3,4.4l-14.6,1.5l-15.1-2.6l-6-3c0,0,2.8-36.8,2.9-38.2c0.1-1.4-0.4-1.8-0.6-2
			c-0.2-0.2-3.4-3.4-4-4.1c-0.6-0.7-1.7-2-3-2c-1.3,0-1.2,1.2-1.2,1.2l2.4,1.3l-7.3,90.6l-1.6,1.6L3.5,302.3l-1.3-2.2
			c0,0-1.2-0.1-1.2,1c0,1.1,0.5,1.8,1.4,2.7c0.9,0.9,29.5,29.3,29.5,29.3s113.2,0,113.6,0c0.6,0,0.9-0.7,1.1-1.8
			c0.1-1.1,0.9-8.3,1-9.4s0.7-2.1,1.7-2.7c1-0.6,19.6-10.4,20.9-11.1c1.2-0.7,3.1-0.5,3.7,0c0.6,0.5,13.8,14,16.8,16.8
			c2.9,2.7,6.5,8.4,13.9,8.4c3.3-0.1,6.9-1.4,8.9-3.5c2.5-2.7,2.7-6.2,2.7-6.2l167.5-0.1c0,0,10.1,11,28.1,10.5
			c18-0.5,27.1-10.2,27.1-10.2l9.6,8.6l54.9-0.2c0,0,0.8-0.7,1.2-2c0.4-1.3,0.7-6.3,0.7-6.3s3.6,4.2,9.5,6.7
			c3.9,1.7,9.4,2.1,13.1,2.1c4.4,0.1,9.7-0.6,12.4-2.8c2.8-2.3,3.4-4.6,3.1-6.4l9.6,8.9c0,0,58.2,0.2,59.8,0.1
			c1.5-0.1,1.6-1.4,1.6-1.4l0.3-7.6c0,0,4.1,4,11,6.8c5.4,2.2,13.3,3.3,17.3,3.4c4.3,0,11.9-1.7,17-4.1c5.7-2.7,8.7-6.2,8.7-6.2
			l170.9-0.2c0,0,2.3,3.9,5.9,6.4c2.2,1.6,5.5,2.3,7.4,2.3c2.1,0,4.5-0.8,6.4-2.3c3-2.4,4.3-5.9,4.3-5.9s32.9,0.1,36.5,0
			c5.2-0.2,7.6-1.6,8-5.6c0.1-1,1.7-0.4,1.3-0.8c-0.4-0.4,15.3,14.8,15.3,14.8s72-0.2,73.2-0.2c1.1,0,1.8-1.4,1.8-2.6
			c0-1.1-0.1-16.8-0.2-19.2c-0.1-2.4-1.1-3.1-1.8-3.9c-0.7-0.7-5.6-5.8-8.5-8.9c-3-3.1-3.3-6.7-3.3-6.7v-226
			C985.8,62.9,986.6,60.5,989.4,59.1z M240.2,220.3L240.2,220.3c1.4-6,2.6-13.2,2.6-13.2l17.8,18.1l-24.1,8.5
			C236.5,233.7,238.8,226.3,240.2,220.3z M384,305L384,305c-10.9,0-20.7-5.2-26.9-13.2c-18.2,0-179.8-0.2-179.8-0.2
			c-1.8,0-3.4,1.7-3.5,3.5c0,1.9,1.7,3.6,3.7,3.6c1.1,0,1.9-0.7,2.7-1.3c0.7-0.7,3.1-2.2,4.8-0.7c1.3,1.4,0.8,3.4-0.7,5
			c-1.1,1.2-4.1,2.9-6.8,2.9c-4.5,0-9.4-3.2-9.5-9.5c-0.1-5.2,4.7-9.3,8.1-9.4l185.3,0.2c4.9,7.4,13.2,12.2,22.7,12.2
			c15.1,0,27.4-12.3,27.4-27.5c0-15.2-12.3-27.5-27.4-27.5c-9.2,0-17.3,4.6-22.3,11.6c-2.8,0-58.4,0.2-58.5,0.2
			c-2.8,0.1-9.3-2.4-9.3-9.5c0-6,5.2-9.5,9.2-9.4c3.6,0.1,6.4,1.6,7.6,3.6c0.9,1.4,1.2,3.6-0.1,4.6c-1.3,1-3.2,0.8-4.2-0.5
			c-0.5-0.7-1.7-1.9-3.1-1.9c-1.8,0.1-3.8,1.2-3.8,3.7c0,2.3,2.2,3.6,3.6,3.6l54.4-0.2c6.3-7.7,15.8-12.6,26.5-12.6
			c18.9,0,34.3,15.4,34.3,34.4C418.3,289.5,403,305,384,305z M212.3,270c0-1.6,1.3-2.9,2.9-2.9l162.5,0.2h0c1.1-2.4,3.4-4.1,6.2-4.1
			c3.8,0,6.8,3.1,6.8,6.9c0,3.8-3.1,6.9-6.8,6.9c-2.7,0-5-1.6-6.1-3.9L215.2,273C213.6,273,212.3,271.7,212.3,270z M474,301.4
			L474,301.4c0,0.4-0.4,0.7-0.8,0.7l-45.2-0.1c-0.4,0-0.8-0.4-0.8-0.8l-0.2-5.4c0-0.3,0.2-0.6,0.5-0.8l2.5-1.3
			c0.8-0.5,1.7-1.4,2.1-1.9c0.2-0.3,0.9-1.3,1.3-2.6c0.4-1.4,0.5-2.9,0.5-2.9s-0.2-54.5-0.2-55.4c0,0-0.4-3.8-0.4-3.9
			c-0.3-1.6-0.9-3.1-1.2-3.6c-0.2-0.3-0.8-1.2-1.9-2l-2.7-1.3c-0.3-0.1-0.5-0.5-0.5-0.8l0.1-5.8c0-0.4,0.3-0.8,0.7-0.8l29.8-2.4
			c0.2,0,0.5,0.1,0.6,0.2c0.2,0.1,0.3,0.4,0.3,0.6c0,0,0.1,6.3,0.1,6.3c0,0.3-0.2,0.7-0.6,0.8c-1.7,0.6-2.9,1.3-3.4,1.9
			c0,0-0.3,0.4-0.3,0.4c-0.4,0.5-0.9,1.1-1.1,1.9c-0.3,0.9-0.3,1.9-0.3,2.4c0,0,0,0.1,0,0.1c0,0,0,0.1,0,0.1c0,0,0,0.1,0,0.1
			c0,0,0,0,0,0c-0.1,0.4-0.1,3.7-0.1,8.6c0,16.7,0.2,52,0.2,52.3l0,0.3c0.1,1.2,0.3,3.2,0.9,4.5c0.7,1.4,1.8,2.1,2.4,2.1
			c0.8,0,3.1-0.7,5-2.9c1.1-1.2,2.1-3.3,3.1-6.1c0.3-0.8,1.3-3.7,2-6.7l1.3-7.3c0.1-0.4,0.4-0.7,0.8-0.7l8,0.2
			c0.2,0,0.4,0.1,0.6,0.3c0.2,0.2,0.2,0.4,0.2,0.6L474,301.4z M513.9,299.4L513.9,299.4c-0.8,0.8-1.5,1.2-3,1.8c0,0-3.3,1-3.4,1
			c0,0-0.7,0.2-0.8,0.2c0,0-2.8,0.3-2.9,0.3c0,0-8.6,0-8.7,0c-0.3,0-2.4-0.2-4.5-1c-2.4-0.9-4.3-2.5-5-3.2c-0.7-0.8-2.3-2.8-3.1-5
			c-0.9-2.6-1-5.3-1.1-5.6c0,0,0-39.2,0-39.2l0-0.4c0-0.8-0.1-1.3-0.3-1.5c-0.3-0.3-1.2-0.4-1.7-0.4h-7.9c-0.2,0-0.4-0.1-0.6-0.3
			c-0.1-0.2-0.2-0.4-0.2-0.6l0.1-8.3c0-0.4,0.4-0.8,0.8-0.8c0,0,8.2,0,8.3,0c0.6,0,1.1-0.1,1.3-0.2c0.2-0.1,0.3-0.6,0.3-1.1v-10.6
			c0-0.4,0.3-0.7,0.6-0.8l17-4.5c0.2-0.1,0.5,0,0.7,0.1c0.2,0.2,0.3,0.4,0.3,0.7v14.9c0,0.5,0.1,1,0.3,1.2c0.1,0.1,0.7,0.3,1.9,0.2
			h10.5c0.4,0,0.8,0.5,0.8,0.9l0,0.4l-0.3,3.9c-0.3,2.2-0.8,3.8-1,4.5c-0.1,0.3-0.4,0.5-0.8,0.5c0,0-8.1,0-9,0c-0.1,0-0.3,0.1-0.4,0
			c0,0-0.1,0-0.2-0.1c-0.3,0-1.1,0.1-1.4,0.4c-0.3,0.3-0.3,0.9-0.3,1.1v0.9c0,21.1,0,33.8,0,35.5c0,1.3,0.3,4.4,2,6.1
			c1.6,1.6,4.7,1.7,5.3,1.7c1,0,2.5-0.1,3.8-0.4l2.4-0.8c0.2-0.1,0.6-0.1,0.8,0.1c0.2,0.2,0.4,0.4,0.4,0.6l0.1,5.6
			C515.1,297.9,514.9,298.5,513.9,299.4z M576.5,302.2h-21.7c-0.6,0-1.9-0.2-2.9-1.1c-1.2-1.1-2-2.7-2.2-3H549
			c-0.5,0.4-3,2.3-4.9,3.3c-1.9,0.9-4.6,1.3-5.6,1.4l-2.1,0l-4,0c-2.6-0.1-6.9-1.7-10-4.8c-3.3-3.3-3.5-7.9-3.5-8c0,0,0-37.8,0-37.7
			c0-0.1,0-8.3,5.3-12.9c4.3-3.7,12.3-4.5,13.5-4.5c1.1,0,4.1,0.3,6.5,1.1c1.6,0.5,2.9,1.2,3.7,1.7c0,0,0.9,0.4,1.1,0.5
			c0.3,0,0.7-0.1,0.9-0.4c0.2-0.3,0.3-0.9,0.4-1.3c0,0,0-9.3,0-9.4c0,0.1-0.1,0-0.1,0.1c0,0,0-0.1,0.1-0.2c0-0.1,0-0.2,0-0.2
			c0-0.7-0.3-1.9-0.6-2.7c-0.7-1.5-2.2-3-2.4-3.3c-0.5-0.5-1.8-1.6-3.2-2.1c-0.7-0.3-1.7-0.5-2.6-0.5c-0.4,0-0.8-0.4-0.8-0.8v-6.2
			c0-0.2,0.1-0.4,0.2-0.6c0.2-0.1,0.4-0.2,0.6-0.2l9.9,0.1c7.1,0.1,14.6,1.3,16.7,1.7c0.4,0.1,0.7,0.4,0.7,0.8
			c0,0.7,0.1,72.5,0.1,74.7c0,0,0.1,4,2.3,5.6c1.6,1.3,4.2,1.5,5.2,1.5c0.4,0,0.8,0.4,0.8,0.8v5.9l0,0
			C577.3,301.9,576.9,302.2,576.5,302.2z M824.9,304.6L824.9,304.6c-2.6,0-5.6-1.7-6.8-2.9c-1.5-1.6-2-3.6-0.7-5
			c1.7-1.5,4,0,4.8,0.7c0.7,0.7,1.6,1.3,2.7,1.3c2-0.1,3.7-1.8,3.7-3.6c0-1.9-1.6-3.5-3.5-3.5c0,0-161.7,0.2-179.9,0.2
			c-6.3,8-16,13.2-26.9,13.2c-18.9,0-34.2-15.4-34.2-34.4c0-19,15.3-34.4,34.2-34.4c10.7,0,20.2,4.9,26.5,12.6l57.7,0.2
			c1.4,0,3.6-1.3,3.6-3.6c0-2.5-2-3.6-3.8-3.7c-1.4,0.1-2.6,1.2-3.1,1.9c-1,1.3-2.9,1.5-4.2,0.5c-1.3-1-1-3.3-0.1-4.6
			c1.3-2,4-3.5,7.6-3.6c4-0.1,9.2,3.4,9.2,9.4c0,7.1-6.5,9.6-9.3,9.5c-0.1,0-59.1-0.2-61.8-0.2c-5-7-13.1-11.6-22.3-11.6
			c-15.1,0-27.4,12.3-27.4,27.5c0,15.2,12.3,27.5,27.4,27.5c9.5,0,17.8-4.8,22.7-12.2l185.3-0.2c3.4,0.1,8.2,4.2,8.1,9.4
			C834.4,301.4,829.4,304.5,824.9,304.6z M787.3,267.1c1.6,0,2.9,1.3,2.9,2.9c0,1.6-1.3,2.9-2.9,2.9l-162.8,0.2
			c-1.1,2.3-3.4,3.9-6.1,3.9c-3.8,0-6.9-3.1-6.9-6.9c0-3.8,3.1-6.9,6.9-6.9c2.8,0,5.2,1.7,6.2,4.1L787.3,267.1z M882.7,296.8
			L882.7,296.8c-1.3,2.2-4.2,2.9-6.4,1.5c-0.7-0.4-70.9-43-160.6-68.8c-72.1-20.8-143.9-31.3-213.2-31.3c-50.2,0-113,3.1-198.3,26.3
			c-91.5,24.9-167.5,69.3-170.7,71.2c0,0-2.1,0.8-3.5,0.5c-1.9-0.3-2.8-2.1-2.8-2.1c-1.3-2.2-0.6-5.1,1.7-6.4
			c3.2-1.9,80.2-46.9,173-72.2c86.4-23.5,149.9-26.6,200.7-26.6c70.2,0,142.8,10.7,215.8,31.7c90.8,26.1,162.1,69.4,162.8,69.8
			C883.4,291.7,884.1,294.6,882.7,296.8z"/>
		<path fill="currentColor" d="M543.4,245c-5.7,0-6.6,5.3-6.6,6.7c0,0.9,0.1,30,0.1,31.8c0,2.9,2.6,6.3,7,6.3c4.3,0,6.7-4,6.7-6.3c0-1.7,0.1-31.6,0-32.4
			C550.6,250.1,549.6,245,543.4,245z"/>
	</g>
</g>
</svg>
